<svg width="108" height="103" viewBox="0 0 108 103" fill="none" xmlns="http://www.w3.org/2000/svg">
<g clip-path="url(#clip0_459_1508)">
<path d="M23.7961 29.5528C25.3141 25.1867 22.9984 20.4215 18.6233 18.9066C14.2483 17.3917 9.47333 19.7026 7.95532 24.0687C6.85714 27.2286 7.7675 30.598 10.0147 32.7943C9.68987 33.7314 9.32086 34.7877 9.32086 34.7877L16.2635 37.1912C16.2635 37.1912 16.6943 36.0865 17.0567 35.092C20.064 34.662 22.731 32.6134 23.7961 29.5528Z" fill="#004EB3" fill-opacity="0.11"/>
<path d="M12.0676 35.6631C12.9338 33.0435 13.9767 30.4856 14.7832 27.8461C14.9578 27.2749 15.1279 26.6972 15.2362 26.1084C15.3621 25.4116 15.3445 24.6024 14.728 24.1349C14.1446 23.6939 13.4619 23.9849 13.0332 24.4877C12.5714 25.0301 12.304 25.7247 12.2201 26.426C12.0477 27.8681 12.6929 29.2948 13.9325 30.0688C15.1102 30.8031 16.6371 30.8803 17.8435 30.1724C18.9638 29.5153 19.8764 28.1592 19.7438 26.8207C19.6908 26.2848 19.4433 25.6762 18.8953 25.4844C18.2479 25.2573 17.6889 25.7225 17.3353 26.2187C16.9265 26.7964 16.6592 27.4932 16.3786 28.1393C16.0714 28.8516 15.782 29.5748 15.5036 30.2981C14.907 31.8417 14.3479 33.4007 13.7535 34.9465C13.6187 35.2927 13.484 35.6389 13.3448 35.9851C13.2785 36.1504 13.5458 36.221 13.6121 36.0578C14.6749 33.4294 15.55 30.7259 16.6857 28.1261C16.9354 27.5528 17.1784 26.9464 17.5298 26.426C17.87 25.921 18.5594 25.3741 19.1096 25.9431C19.5471 26.3951 19.5361 27.1382 19.3925 27.7049C19.2334 28.34 18.8865 28.9221 18.4225 29.383C17.4701 30.3246 16.1001 30.6267 14.834 30.1923C13.5282 29.7446 12.5979 28.5892 12.483 27.2088C12.4256 26.5208 12.5559 25.813 12.8829 25.2021C13.1812 24.6465 13.8419 23.846 14.5313 24.3245C15.2318 24.8118 15.0395 25.7865 14.8738 26.4877C14.7589 26.975 14.6175 27.4558 14.4672 27.9343C13.6652 30.5142 12.6487 33.0214 11.8024 35.5859C11.7472 35.7557 12.0124 35.8263 12.0698 35.6587L12.0676 35.6631Z" fill="white" fill-opacity="0.6"/>
<path d="M9.85989 39.4734C9.85989 39.4734 10.0808 39.7556 10.1737 40.0313C10.2223 40.1746 10.3394 40.2849 10.4808 40.3334L11.8773 40.8163C12.0341 40.8714 12.2087 40.845 12.3391 40.7457C12.4937 40.6289 12.739 40.512 12.9445 40.5407L9.85547 39.4734H9.85989Z" fill="#004EB3" fill-opacity="0.11"/>
<path d="M9.69405 35.0698C9.68522 35.0985 9.25213 37.3874 9.08862 38.2628C9.02012 38.6222 9.12618 38.9993 9.39355 39.2507C9.49077 39.3433 9.6123 39.4227 9.76034 39.4756C10.3591 39.6829 12.8162 40.5318 12.8162 40.5318C12.8162 40.5318 13.6139 40.8075 14.0161 40.2386C14.4381 39.6388 15.7064 37.147 15.7064 37.147L9.69626 35.072L9.69405 35.0698Z" fill="#004EB3" fill-opacity="0.11"/>
<path d="M8.88035 37.9905L8.88607 37.9738C8.91468 37.8904 9.00519 37.8444 9.09091 37.8736L14.422 39.6941C14.5056 39.7227 14.551 39.8151 14.5224 39.8985L14.5166 39.9152C14.488 39.9987 14.3954 40.0439 14.3118 40.0154L8.98074 38.1949C8.89711 38.1664 8.85311 38.0768 8.88172 37.9933L8.88035 37.9905Z" fill="#004EB3" fill-opacity="0.11"/>
<path d="M14.3099 40.0137C14.3099 40.0137 14.3541 40.0358 14.4293 40.0005C14.4646 39.9829 14.5 39.9454 14.5132 39.888C14.5287 39.8351 14.511 39.7579 14.4469 39.7205C14.1597 39.6168 13.7266 39.4779 13.2007 39.2993C12.1423 38.9399 10.6884 38.4459 9.07978 37.9013C9.0378 37.8858 8.98919 37.8946 8.95605 37.9211C8.93837 37.9343 8.92511 37.952 8.91627 37.9718C8.90743 37.9939 8.8986 38.0181 8.8986 38.038C8.8986 38.0821 8.91848 38.124 8.95384 38.1504C8.98698 38.1725 9.04443 38.1857 9.09083 38.2034C9.28749 38.2695 9.47973 38.3357 9.66975 38.4018C10.0476 38.5319 10.4144 38.6576 10.7635 38.7767C11.4595 39.017 12.0849 39.2331 12.613 39.4139C13.1366 39.597 13.5609 39.7447 13.857 39.8484C14.0006 39.8991 14.1133 39.941 14.195 39.9696C14.2304 39.9829 14.2591 39.9939 14.2834 40.0027C14.3033 40.0093 14.3122 40.0137 14.3122 40.0159C14.3122 40.0159 14.3011 40.0159 14.2812 40.0093C14.2591 40.0027 14.2282 39.9939 14.1928 39.9829C14.1111 39.9564 13.9962 39.9189 13.8526 39.8726C13.5543 39.7734 13.1278 39.63 12.6019 39.4536C12.0738 39.275 11.4463 39.0633 10.748 38.8274C10.3989 38.7083 10.0343 38.5848 9.65428 38.4547C9.46426 38.3908 9.27202 38.3246 9.07537 38.2585L9.00245 38.2342C8.98035 38.2276 8.94942 38.2166 8.92511 38.1989C8.87429 38.1637 8.84557 38.1019 8.84778 38.0402C8.84778 38.0071 8.85882 37.9806 8.86987 37.9542C8.88313 37.9255 8.90302 37.9013 8.92732 37.8814C8.97593 37.8439 9.04443 37.8307 9.10409 37.8527C10.7083 38.404 12.1622 38.9024 13.2184 39.2662C13.7443 39.4514 14.1685 39.5926 14.4646 39.705C14.5375 39.7513 14.5552 39.8373 14.5353 39.8969C14.5199 39.9564 14.4801 39.9983 14.4403 40.0159C14.3586 40.049 14.3144 40.0159 14.3166 40.0181L14.3099 40.0137Z" fill="#004EB3" fill-opacity="0.11"/>
<path d="M9.01035 37.2518L9.00535 37.2664C8.97651 37.3505 9.02146 37.442 9.10574 37.4708L14.6605 39.3677C14.7448 39.3964 14.8365 39.3516 14.8653 39.2675L14.8703 39.2529C14.8992 39.1688 14.8542 39.0772 14.7699 39.0485L9.21519 37.1516C9.13091 37.1228 9.0392 37.1677 9.01035 37.2518Z" fill="#004EB3" fill-opacity="0.11"/>
<path d="M14.6624 39.3654C14.6624 39.3654 14.7088 39.3875 14.7862 39.35C14.8237 39.3302 14.8569 39.2883 14.8679 39.2287C14.8812 39.1714 14.8547 39.0942 14.7839 39.0611C14.4746 38.9575 14.0305 38.8097 13.4869 38.6267C12.3887 38.2541 10.8773 37.7403 9.20687 37.1736C9.16268 37.1581 9.11186 37.167 9.07872 37.1978C9.06104 37.2133 9.04778 37.2309 9.03894 37.253C9.0279 37.2794 9.02348 37.2993 9.02569 37.3213C9.02569 37.3676 9.05441 37.4095 9.09418 37.4316C9.13396 37.4492 9.19362 37.4668 9.24223 37.4845C9.44551 37.5551 9.64659 37.6234 9.84324 37.6896C10.2366 37.8241 10.6166 37.9542 10.979 38.0799C11.7015 38.329 12.3512 38.554 12.8991 38.7414C13.4427 38.931 13.8846 39.0854 14.1918 39.1912C14.342 39.2442 14.4591 39.2861 14.5431 39.3169C14.5807 39.3302 14.6116 39.3412 14.6337 39.35C14.6536 39.3588 14.6646 39.3632 14.6646 39.3632C14.6646 39.3632 14.6536 39.3632 14.6315 39.3544C14.6072 39.3478 14.5762 39.3368 14.5387 39.3257C14.4547 39.2993 14.3354 39.2596 14.1851 39.2111C13.8758 39.1074 13.4317 38.9597 12.8859 38.7767C12.3379 38.5914 11.6839 38.3709 10.9613 38.1262C10.5989 38.0027 10.2189 37.8748 9.82557 37.7403C9.62891 37.6741 9.42784 37.6058 9.22455 37.5352C9.17152 37.5154 9.12512 37.5043 9.06767 37.4779C9.01243 37.447 8.97487 37.3875 8.97266 37.3235C8.97266 37.2926 8.97928 37.2574 8.99033 37.2331C9.00138 37.2022 9.02127 37.1758 9.04557 37.1559C9.09418 37.114 9.1671 37.1008 9.22676 37.1229C10.895 37.6962 12.4042 38.2144 13.5024 38.5914C14.0481 38.7811 14.4901 38.9332 14.7972 39.0435C14.8767 39.0832 14.9055 39.1714 14.8878 39.2331C14.8745 39.2949 14.8348 39.3434 14.795 39.361C14.711 39.3985 14.6646 39.3632 14.6668 39.3654H14.6624Z" fill="#004EB3" fill-opacity="0.11"/>
<path d="M14.9711 38.7038L9.2703 36.7567C9.18634 36.728 9.14214 36.6376 9.17087 36.5538L9.1775 36.5362C9.20622 36.4524 9.29682 36.4083 9.38078 36.437L15.0816 38.3841C15.1656 38.4127 15.2097 38.5031 15.181 38.5869L15.1744 38.6046C15.1457 38.6884 15.0551 38.7325 14.9711 38.7038Z" fill="#004EB3" fill-opacity="0.11"/>
<path d="M14.971 38.7039C14.971 38.7039 15.0196 38.7282 15.097 38.6885C15.1345 38.6686 15.1677 38.6245 15.1787 38.5628C15.1898 38.5032 15.1588 38.4261 15.0837 38.3974C14.7655 38.2915 14.3125 38.1394 13.7535 37.952C12.6288 37.5705 11.0821 37.0457 9.37184 36.4635C9.32765 36.4481 9.27462 36.4591 9.24148 36.49C9.2238 36.5054 9.21054 36.5253 9.20391 36.5473C9.19507 36.5738 9.19066 36.5936 9.19287 36.6179C9.19728 36.6642 9.22601 36.7061 9.26799 36.7259C9.31439 36.7436 9.37184 36.7612 9.42266 36.7789C9.63037 36.8494 9.83586 36.92 10.0369 36.9883C10.4391 37.1273 10.828 37.2596 11.1992 37.3875C11.9394 37.6433 12.6045 37.8726 13.1658 38.0644C13.7226 38.2585 14.1733 38.415 14.4893 38.5253C14.6418 38.5804 14.7633 38.6223 14.8495 38.6532C14.887 38.6686 14.918 38.6796 14.9423 38.6885C14.9622 38.6973 14.9732 38.7017 14.9732 38.7017C14.9732 38.7017 14.9622 38.7017 14.9401 38.6929C14.9158 38.6863 14.8848 38.6752 14.8451 38.6642C14.7589 38.6355 14.6374 38.5959 14.4827 38.5451C14.1645 38.4393 13.7115 38.2871 13.1525 38.0997C12.5913 37.9101 11.9239 37.6829 11.1815 37.4338C10.8103 37.3081 10.4214 37.1758 10.0193 37.0391C9.81819 36.9707 9.61269 36.9001 9.40499 36.8296C9.35196 36.8119 9.30335 36.7965 9.2459 36.7744C9.18624 36.748 9.14425 36.6884 9.13983 36.6223C9.13541 36.5914 9.14425 36.5539 9.1553 36.5297C9.16635 36.4988 9.18403 36.4701 9.20833 36.4481C9.25694 36.404 9.32986 36.3885 9.39394 36.4106C11.102 36.9972 12.6465 37.5286 13.7712 37.9123C14.328 38.1063 14.7788 38.2629 15.097 38.3731C15.1809 38.4062 15.2163 38.4966 15.2008 38.5606C15.1876 38.6245 15.15 38.6752 15.108 38.6929C15.024 38.7326 14.9732 38.6973 14.9776 38.6995L14.971 38.7039Z" fill="#004EB3" fill-opacity="0.11"/>
<path d="M9.57674 32.9221C9.55685 32.9795 9.22099 34.3554 9.04864 35.0633C8.98456 35.3235 9.04422 35.5969 9.20994 35.8064L9.45079 36.1151L15.3593 38.1548L15.7349 38.0622C15.9979 37.9983 16.2166 37.8152 16.3271 37.5683L17.2198 35.5594L9.57674 32.9199V32.9221Z" fill="#004EB3" fill-opacity="0.11"/>
<path d="M16.0854 37.8043C16.081 37.8175 14.4967 37.2839 12.5456 36.6114C10.5967 35.9388 9.01903 35.3809 9.02345 35.3655C9.02787 35.3522 10.6122 35.8859 12.5633 36.5584C14.5121 37.231 16.0898 37.7889 16.0832 37.8021L16.0854 37.8043Z" fill="#004EB3" fill-opacity="0.11"/>
<path d="M99.0411 10.944C97.4524 7.54816 93.4066 6.07737 90.0016 7.66283C86.5988 9.24829 85.125 13.2858 86.7137 16.6839C87.8627 19.1426 90.3021 20.5913 92.852 20.6023C93.1923 21.3322 93.5768 22.1547 93.5768 22.1547L98.9793 19.6387C98.9793 19.6387 98.6058 18.7523 98.2545 17.9694C99.7615 16.0245 100.155 13.3277 99.0411 10.944Z" fill="#004EB3" fill-opacity="0.11"/>
<path d="M95.6953 21.0962C94.6987 19.0455 93.8458 16.9242 92.7918 14.8999C92.3764 14.1017 91.7975 12.7544 90.6993 12.8757C89.4001 13.019 89.9348 14.825 90.3966 15.5041C91.0374 16.4479 92.1422 17.0124 93.289 16.8801C94.3761 16.7544 95.3837 16.0686 95.819 15.0543C96.2698 13.998 96.1173 12.6177 95.313 11.7643C94.9749 11.4049 94.4203 11.1028 93.9209 11.2968C93.4326 11.4864 93.3045 12.0201 93.3509 12.4942C93.4149 13.1248 93.6845 13.7423 93.9099 14.3288C94.1706 15.008 94.4513 15.6783 94.7385 16.3465C95.3439 17.7533 95.9891 19.1447 96.5681 20.5648C96.6344 20.7258 96.9017 20.6552 96.8354 20.4921C95.9759 18.3884 94.9705 16.3421 94.1618 14.2164C93.985 13.7533 93.795 13.2814 93.6823 12.7985C93.5696 12.32 93.5608 11.5195 94.2458 11.5107C94.8136 11.5041 95.2533 12.0443 95.4876 12.5008C95.7372 12.9925 95.8345 13.557 95.7814 14.1061C95.6754 15.2086 94.9131 16.1216 93.8679 16.47C92.8338 16.8162 91.7246 16.5427 90.9645 15.7621C90.5977 15.3851 90.3303 14.9088 90.2154 14.395C90.0895 13.8283 90.2066 13.019 90.9799 13.1557C91.5478 13.2549 91.8748 13.826 92.1422 14.2825C92.3455 14.6309 92.5333 14.9881 92.7145 15.3476C93.6934 17.2814 94.5131 19.2881 95.461 21.2374C95.5384 21.3961 95.777 21.2572 95.6997 21.0985L95.6953 21.0962Z" fill="white" fill-opacity="0.6"/>
<path d="M96.5469 24.5758C96.5469 24.5758 96.8341 24.6154 97.0463 24.7235C97.1545 24.7786 97.2849 24.7786 97.3976 24.7257L98.4847 24.2185C98.6062 24.1612 98.6924 24.0487 98.7145 23.9164C98.7388 23.7621 98.8162 23.5548 98.9509 23.4556L96.5491 24.5758H96.5469Z" fill="#004EB3" fill-opacity="0.11"/>
<path d="M93.957 22.1061C93.9681 22.1282 95.0132 23.7048 95.4132 24.3068C95.5767 24.5538 95.8529 24.7148 96.149 24.7103C96.2572 24.7103 96.3744 24.6883 96.4893 24.6332C96.9555 24.4149 98.8668 23.524 98.8668 23.524C98.8668 23.524 99.4877 23.2351 99.3993 22.6773C99.3043 22.0907 98.6326 19.9253 98.6326 19.9253L93.9592 22.1061H93.957Z" fill="#004EB3" fill-opacity="0.11"/>
<path d="M95.1941 24.0761L99.3267 22.1302C99.3906 22.1001 99.4691 22.1265 99.5002 22.1923L99.5059 22.2043C99.536 22.2681 99.5095 22.3464 99.4436 22.3775L95.309 24.3243C95.2451 24.3544 95.1666 24.328 95.1355 24.2622L95.1298 24.2502C95.0997 24.1864 95.1262 24.1081 95.1921 24.0771L95.1941 24.0761Z" fill="#004EB3" fill-opacity="0.11"/>
<path d="M99.4453 22.3795C99.4453 22.3795 99.4828 22.3663 99.5071 22.3045C99.5182 22.2736 99.5182 22.2318 99.4917 22.1921C99.4718 22.1524 99.4166 22.1171 99.3569 22.1303C99.1315 22.2318 98.8001 22.3949 98.3935 22.589C97.5737 22.9771 96.4468 23.5085 95.2028 24.0973C95.1697 24.1127 95.1476 24.1436 95.1409 24.1789C95.1387 24.1965 95.1409 24.2141 95.1476 24.2318C95.1542 24.2494 95.163 24.2671 95.1741 24.2803C95.1984 24.3067 95.2338 24.32 95.2691 24.3156C95.3 24.3112 95.342 24.2847 95.3796 24.2693C95.5321 24.1987 95.6801 24.1281 95.8281 24.0576C96.122 23.9186 96.4071 23.7863 96.6766 23.6607C97.218 23.4071 97.7041 23.1799 98.1151 22.9881C98.5239 22.7985 98.8531 22.6463 99.0851 22.5383C99.1978 22.4875 99.2862 22.4478 99.3503 22.4192C99.379 22.406 99.4011 22.3971 99.4188 22.3883C99.4342 22.3817 99.4431 22.3795 99.4431 22.3795C99.4431 22.3795 99.4364 22.3839 99.421 22.3927C99.4033 22.4015 99.3812 22.4126 99.3525 22.428C99.2906 22.4589 99.2022 22.5008 99.0917 22.5559C98.8619 22.6662 98.5327 22.8227 98.1261 23.019C97.7174 23.213 97.2312 23.4423 96.6921 23.6981C96.4225 23.826 96.1397 23.9605 95.8458 24.0995C95.6978 24.1678 95.5497 24.2384 95.3973 24.3112L95.3398 24.3376C95.3221 24.3464 95.3 24.3575 95.2735 24.3619C95.2249 24.3685 95.1719 24.3508 95.1387 24.3134C95.1211 24.2935 95.1122 24.2737 95.1034 24.2516C95.0945 24.2274 95.0923 24.2031 95.0945 24.1789C95.1012 24.1281 95.1343 24.084 95.1807 24.062C96.4269 23.4776 97.5561 22.9484 98.3758 22.5647C98.7868 22.3751 99.1138 22.2185 99.3503 22.1171C99.4188 22.1039 99.4784 22.1435 99.5005 22.1876C99.5248 22.2318 99.5248 22.2781 99.5116 22.3111C99.4828 22.3751 99.4386 22.3817 99.4409 22.3817L99.4453 22.3795Z" fill="#004EB3" fill-opacity="0.11"/>
<path d="M94.8562 23.5849L99.1646 21.5561C99.2285 21.526 99.307 21.5525 99.3381 21.6183L99.3438 21.6302C99.374 21.6941 99.3475 21.7724 99.2815 21.8034L94.9731 23.8322C94.9092 23.8623 94.8307 23.8358 94.7996 23.77L94.7939 23.758C94.7628 23.6922 94.7902 23.6159 94.8562 23.5849Z" fill="#004EB3" fill-opacity="0.11"/>
<path d="M99.2823 21.8063C99.2823 21.8063 99.3221 21.793 99.3464 21.7291C99.3575 21.696 99.353 21.6541 99.3265 21.6122C99.3022 21.5725 99.2426 21.5416 99.1829 21.5615C98.9443 21.6762 98.6018 21.8393 98.1819 22.04C97.3312 22.4413 96.1601 22.997 94.8675 23.6078C94.8344 23.6233 94.8101 23.6563 94.8057 23.6938C94.8057 23.7115 94.8057 23.7313 94.8145 23.7467C94.8233 23.7666 94.8322 23.782 94.8454 23.7952C94.8719 23.8217 94.9117 23.8305 94.9471 23.8217C94.9802 23.8107 95.0244 23.7864 95.062 23.7688C95.2189 23.6938 95.3757 23.621 95.5282 23.5505C95.8331 23.4072 96.1292 23.2682 96.4098 23.1359C96.9711 22.8735 97.4771 22.6376 97.9035 22.4391C98.3278 22.2429 98.6703 22.0841 98.9111 21.9716C99.0282 21.9187 99.121 21.8768 99.1873 21.8459C99.216 21.8327 99.2404 21.8217 99.2602 21.8151C99.2757 21.8085 99.2845 21.804 99.2845 21.8063C99.2845 21.8063 99.2779 21.8107 99.2602 21.8195C99.2426 21.8283 99.2183 21.8393 99.1895 21.8548C99.1255 21.8856 99.0349 21.9297 98.9177 21.9871C98.6791 22.1017 98.3366 22.2649 97.9146 22.4678C97.4903 22.6684 96.9865 22.9088 96.4253 23.1734C96.1447 23.3057 95.8508 23.4446 95.5459 23.5902C95.3934 23.6629 95.2387 23.7357 95.0796 23.8107C95.0377 23.8283 95.0045 23.8482 94.9559 23.8658C94.9051 23.879 94.8498 23.8658 94.8123 23.8283C94.7924 23.8107 94.7791 23.7864 94.7725 23.7666C94.7615 23.7423 94.757 23.7159 94.7615 23.6894C94.7659 23.6365 94.8012 23.5902 94.8476 23.5681C96.1425 22.9617 97.3158 22.4127 98.1665 22.0113C98.5929 21.8129 98.9354 21.6541 99.1763 21.5438C99.2448 21.5218 99.3111 21.5571 99.3376 21.6034C99.3641 21.6475 99.3685 21.696 99.3553 21.7291C99.3265 21.7974 99.2801 21.804 99.2823 21.804V21.8063Z" fill="#004EB3" fill-opacity="0.11"/>
<path d="M99.0875 21.2463L94.6661 23.3279C94.602 23.3587 94.5247 23.3301 94.4937 23.2661L94.4871 23.2529C94.4562 23.1889 94.4849 23.1118 94.549 23.0809L98.9704 20.9993C99.0345 20.9684 99.1118 20.9971 99.1428 21.061L99.1494 21.0743C99.1803 21.1382 99.1516 21.2154 99.0875 21.2463Z" fill="#004EB3" fill-opacity="0.11"/>
<path d="M99.0874 21.2462C99.0874 21.2462 99.1293 21.233 99.1514 21.1668C99.1625 21.1338 99.1559 21.0897 99.1271 21.0478C99.1006 21.0081 99.0365 20.9794 98.9769 21.0059C98.7316 21.1227 98.3825 21.2903 97.9516 21.4954C97.081 21.9078 95.8834 22.4745 94.5599 23.1007C94.5245 23.1161 94.5002 23.1514 94.498 23.1889C94.498 23.2088 94.5002 23.2264 94.509 23.244C94.5179 23.2661 94.5267 23.2793 94.5422 23.2926C94.5709 23.3168 94.6129 23.3256 94.6482 23.3124C94.6858 23.297 94.7278 23.2749 94.7676 23.2573C94.9289 23.1823 95.088 23.1073 95.2448 23.0324C95.5586 22.8846 95.8591 22.7435 96.1464 22.609C96.7209 22.34 97.2401 22.0974 97.6754 21.8945C98.1085 21.6939 98.462 21.5307 98.7073 21.416C98.8266 21.3609 98.9216 21.319 98.9879 21.2881C99.0189 21.2749 99.0432 21.2639 99.0608 21.255C99.0785 21.2484 99.0874 21.244 99.0874 21.2462C99.0874 21.2462 99.0807 21.2506 99.0631 21.2595C99.0454 21.2683 99.0211 21.2815 98.9901 21.2947C98.9239 21.3278 98.8311 21.3719 98.7117 21.4292C98.4665 21.5461 98.1173 21.7137 97.6865 21.921C97.2512 22.1283 96.7341 22.373 96.1618 22.6443C95.8746 22.781 95.5741 22.9221 95.2603 23.0698C95.1034 23.1426 94.9443 23.2176 94.783 23.2948C94.7411 23.3146 94.7057 23.3322 94.6593 23.3521C94.6085 23.3697 94.551 23.3587 94.5113 23.3234C94.4914 23.308 94.4759 23.2815 94.4671 23.2617C94.456 23.2374 94.4494 23.211 94.4516 23.1845C94.456 23.1316 94.4892 23.0809 94.5378 23.0588C95.8635 22.437 97.0634 21.8747 97.9362 21.4667C98.3692 21.2661 98.7228 21.1029 98.968 20.9882C99.0365 20.9596 99.1073 20.9926 99.1338 21.0389C99.1625 21.0831 99.1691 21.1338 99.1559 21.169C99.1293 21.2396 99.0807 21.2462 99.0829 21.2462H99.0874Z" fill="#004EB3" fill-opacity="0.11"/>
<path d="M92.6738 20.922C92.6937 20.9661 93.2793 21.9584 93.5776 22.4655C93.688 22.653 93.8781 22.7787 94.0924 22.8073L94.4084 22.8514L99.0044 20.7081L99.1701 20.4413C99.2872 20.256 99.3115 20.0267 99.2342 19.8194L98.6177 18.1458L92.6738 20.9198V20.922Z" fill="#004EB3" fill-opacity="0.11"/>
<path d="M99.2253 20.0951C99.2297 20.1062 98.0056 20.6883 96.4898 21.3961C94.974 22.104 93.741 22.6685 93.7344 22.6575C93.73 22.6464 94.9541 22.0643 96.4699 21.3564C97.9857 20.6486 99.2186 20.0841 99.2253 20.0951Z" fill="#004EB3" fill-opacity="0.11"/>
<path d="M69.2964 51.6543C58.6946 51.5573 49.1027 51.4669 42.1468 51.403C38.6777 51.3875 35.8693 51.3743 33.9204 51.3655C32.9548 51.3655 32.2036 51.3699 31.6843 51.3699C31.4346 51.3721 31.2402 51.3765 31.1032 51.3765C30.9728 51.3787 30.9043 51.3831 30.9043 51.3875C30.9043 51.3919 30.9706 51.3964 31.1032 51.4008C31.2424 51.403 31.4346 51.4074 31.6843 51.414C32.2036 51.4206 32.9548 51.4294 33.9204 51.4405C35.8715 51.4515 38.6777 51.4647 42.1468 51.4823C49.1005 51.4868 58.6946 51.4934 69.2964 51.5C79.8937 51.5 89.4878 51.5132 96.4349 51.5617C99.9084 51.586 102.719 51.6169 104.661 51.6543C105.633 51.672 106.387 51.6918 106.897 51.7095C107.408 51.7293 107.677 51.747 107.677 51.7668C107.677 51.7844 107.408 51.8021 106.897 51.8153C106.387 51.8285 105.631 51.8418 104.659 51.8484C102.717 51.866 99.904 51.8682 96.4326 51.8594C89.4856 51.8396 79.8915 51.7602 69.2942 51.6543H69.2964Z" fill="#004EB3" fill-opacity="0.11"/>
<path d="M69.085 53.9477C58.6291 52.2696 49.1653 50.7503 42.3067 49.65C38.8818 49.1163 36.1109 48.6863 34.1842 48.3865C33.2296 48.2453 32.4872 48.1351 31.9745 48.0579C31.7271 48.0248 31.5348 47.9984 31.3978 47.9785C31.2675 47.9631 31.2012 47.9565 31.2012 47.9587C31.2012 47.9631 31.2653 47.9763 31.3956 48.0006C31.5326 48.0248 31.7204 48.0579 31.9679 48.0998C32.4805 48.1836 33.2208 48.3049 34.1731 48.4614C36.0977 48.7613 38.8685 49.1957 42.2934 49.7316C49.1631 50.7724 58.6402 52.2079 69.1115 53.7933C79.5785 55.37 89.0577 56.8143 95.9097 57.897C99.3369 58.4395 102.108 58.8893 104.021 59.2157C104.978 59.3789 105.72 59.509 106.222 59.606C106.724 59.703 106.987 59.7603 106.982 59.778C106.98 59.7956 106.71 59.7736 106.204 59.7118C105.696 59.6501 104.949 59.5486 103.988 59.4119C102.066 59.1385 99.2883 58.7239 95.8589 58.1969C89.0003 57.1429 79.5343 55.6302 69.085 53.9455V53.9477Z" fill="#004EB3" fill-opacity="0.11"/>
<path d="M68.5022 56.1836C58.4529 52.9465 49.3559 50.0159 42.7646 47.8924C39.4701 46.8494 36.8031 46.0049 34.9514 45.4183C34.0322 45.1339 33.3163 44.9133 32.8213 44.7612C32.5827 44.6906 32.3971 44.6355 32.2645 44.5958C32.1386 44.5605 32.0745 44.5429 32.0723 44.5473C32.0723 44.5517 32.1341 44.576 32.2557 44.6179C32.386 44.662 32.5672 44.7237 32.8036 44.8031C33.2942 44.9641 34.0079 45.1956 34.9227 45.4933C36.7743 46.082 39.4391 46.9288 42.7337 47.974C49.347 50.038 58.4683 52.887 68.5508 56.0358C78.6289 59.1737 87.7524 62.0315 94.3414 64.1374C97.636 65.1892 100.301 66.0536 102.135 66.6644C103.052 66.9687 103.763 67.2113 104.243 67.3811C104.722 67.5509 104.972 67.6501 104.965 67.6677C104.959 67.6854 104.698 67.6214 104.207 67.4847C103.717 67.3458 102.994 67.1341 102.068 66.854C100.215 66.2939 97.5409 65.4648 94.2398 64.4262C87.6397 62.349 78.5405 59.4251 68.4978 56.1814L68.5022 56.1836Z" fill="#004EB3" fill-opacity="0.11"/>
<path d="M67.5578 58.3005C58.1625 53.586 49.6622 49.3213 43.4995 46.2298C40.4171 44.7016 37.9225 43.4646 36.1901 42.6068C35.3284 42.1878 34.6589 41.8615 34.1948 41.6365C33.9695 41.5307 33.7971 41.4491 33.6734 41.3896C33.5563 41.3344 33.4944 41.3102 33.4922 41.3124C33.4922 41.3168 33.5474 41.3499 33.6623 41.4094C33.7839 41.4734 33.954 41.5616 34.1727 41.6762C34.6323 41.9078 35.2974 42.2451 36.1526 42.6773C37.8849 43.5373 40.3773 44.7766 43.4598 46.3069C49.6511 49.3456 58.1935 53.5352 67.6307 58.1681C77.068 62.79 85.6082 66.9885 91.7708 70.0646C94.8532 71.6016 97.3412 72.8563 99.0537 73.7361C99.911 74.1749 100.574 74.5211 101.02 74.7615C101.467 75.0018 101.696 75.1364 101.688 75.1518C101.679 75.1672 101.431 75.0658 100.969 74.8563C100.508 74.6446 99.8293 74.3271 98.9609 73.9103C97.2219 73.0768 94.7162 71.8552 91.6294 70.3292C85.4513 67.2818 76.9443 63.0216 67.56 58.3027L67.5578 58.3005Z" fill="#004EB3" fill-opacity="0.11"/>
<path d="M66.2818 60.2499C57.7703 54.1859 50.0676 48.6974 44.4861 44.7195C41.691 42.7481 39.4283 41.1516 37.8573 40.0447C37.0751 39.5022 36.4652 39.0788 36.0454 38.7855C35.8399 38.6466 35.683 38.5408 35.5703 38.4636C35.4621 38.393 35.4068 38.3578 35.4024 38.36C35.4002 38.3622 35.451 38.4041 35.5549 38.4812C35.6654 38.5628 35.8178 38.6753 36.0167 38.8208C36.4321 39.1185 37.0353 39.5507 37.8087 40.1064C39.3797 41.2156 41.6402 42.812 44.4353 44.7856C50.0566 48.7151 57.8101 54.1352 66.3768 60.1243C74.9457 66.1045 82.697 71.5334 88.2829 75.4938C91.0759 77.4739 93.3297 79.0859 94.8786 80.2127C95.652 80.775 96.2508 81.216 96.653 81.5203C97.0551 81.8246 97.2606 81.9922 97.2473 82.0076C97.2363 82.023 97.0087 81.8841 96.5867 81.6063C96.1646 81.3284 95.5481 80.9117 94.7571 80.3714C93.175 79.2887 90.9013 77.7055 88.0973 75.7363C82.4915 71.8002 74.7844 66.3162 66.2818 60.2477V60.2499Z" fill="#004EB3" fill-opacity="0.11"/>
<path d="M64.7035 61.9831C57.2792 54.7217 50.5597 48.1527 45.6897 43.3897C43.2481 41.0259 41.2727 39.1119 39.8983 37.7822C39.2134 37.1295 38.6808 36.6201 38.3118 36.2695C38.1329 36.1019 37.9936 35.9718 37.8942 35.8814C37.7992 35.7954 37.7484 35.7513 37.7462 35.7535C37.744 35.7557 37.7882 35.8042 37.8765 35.8968C37.9716 35.9939 38.1041 36.1262 38.2787 36.3004C38.6411 36.6576 39.1647 37.1736 39.8409 37.8373C41.2131 39.167 43.1885 41.0832 45.6279 43.4493C50.5421 48.1682 57.3234 54.6798 64.8162 61.8773C72.3112 69.0637 79.0881 75.5819 83.9625 80.3295C86.4019 82.7022 88.3662 84.6316 89.7119 85.9745C90.3858 86.6471 90.9051 87.1719 91.252 87.5313C91.5989 87.8908 91.7757 88.087 91.7624 88.1003C91.7492 88.1135 91.5459 87.9437 91.1747 87.6063C90.8034 87.2689 90.2599 86.7662 89.5683 86.1135C88.1828 84.808 86.1898 82.9028 83.7415 80.5412C78.8428 75.8157 72.1167 69.2489 64.7035 61.9875V61.9831Z" fill="#004EB3" fill-opacity="0.11"/>
<path d="M62.8651 63.4606C56.7092 55.1805 51.1365 47.6876 47.0973 42.2564C45.0689 39.5574 43.4272 37.3699 42.287 35.8528C41.7169 35.1053 41.2728 34.5231 40.9657 34.1218C40.8154 33.93 40.7005 33.7822 40.6165 33.6742C40.537 33.575 40.495 33.5242 40.4906 33.5264C40.4862 33.5286 40.5237 33.5838 40.5966 33.6874C40.6762 33.7955 40.7845 33.9498 40.9281 34.1461C41.2286 34.5518 41.6639 35.1406 42.2207 35.8969C43.3609 37.4162 45.0004 39.6015 47.0266 42.3027C51.1166 47.6986 56.76 55.143 62.9933 63.368C69.2311 71.5864 74.87 79.0352 78.9158 84.4509C80.9398 87.1588 82.5683 89.3572 83.6797 90.8854C84.2365 91.6483 84.663 92.2459 84.948 92.6539C85.2331 93.0618 85.3745 93.2823 85.359 93.2933C85.3436 93.3044 85.1712 93.1059 84.8574 92.7178C84.5437 92.3297 84.0907 91.752 83.5118 91.0022C82.354 89.505 80.6967 87.3286 78.6595 84.6273C74.5872 79.2292 69.0079 71.7385 62.8607 63.4584L62.8651 63.4606Z" fill="#004EB3" fill-opacity="0.11"/>
<path d="M60.8079 64.6469C56.0771 55.5443 51.7949 47.3083 48.6904 41.3369C47.126 38.3666 45.8621 35.9608 44.9826 34.2916C44.5407 33.4669 44.196 32.8252 43.9596 32.382C43.8425 32.1703 43.7519 32.0049 43.6878 31.888C43.6259 31.7778 43.5906 31.7227 43.5884 31.7227C43.5839 31.7227 43.6105 31.7844 43.6657 31.8969C43.7254 32.0159 43.8093 32.1835 43.9176 32.3996C44.1474 32.845 44.481 33.4933 44.9097 34.3225C45.7869 35.9939 47.0508 38.3997 48.613 41.3722C51.7728 47.3149 56.1346 55.5134 60.9515 64.5742C65.7751 73.6261 70.1281 81.829 73.2436 87.7872C74.8014 90.7663 76.0498 93.1809 76.9005 94.8567C77.3248 95.6947 77.6518 96.3474 77.8661 96.7928C78.0805 97.2383 78.1843 97.4764 78.1666 97.4852C78.149 97.494 78.012 97.2713 77.7645 96.8413C77.5192 96.4113 77.1635 95.7719 76.7149 94.9449C75.8156 93.2933 74.5318 90.8942 72.9608 87.9217C69.8187 81.979 65.5298 73.743 60.8079 64.6425V64.6469Z" fill="#004EB3" fill-opacity="0.11"/>
<path d="M58.5843 65.5068C55.4047 55.8043 52.5278 47.0236 50.4419 40.6575C49.3857 37.4866 48.5284 34.9221 47.9362 33.1404C47.6357 32.2605 47.4015 31.5748 47.238 31.1007C47.1562 30.8735 47.0943 30.6971 47.0501 30.5714C47.006 30.4524 46.9816 30.3928 46.9772 30.3928C46.9728 30.3928 46.9905 30.4568 47.0258 30.578C47.0656 30.7059 47.1209 30.8824 47.1916 31.1139C47.3462 31.5902 47.5694 32.2782 47.8544 33.1624C48.4466 34.9441 49.3017 37.5109 50.3557 40.6818C52.5013 47.0281 55.4644 55.7823 58.7368 65.4582C62.0159 75.1254 64.9701 83.884 67.0693 90.2369C68.1188 93.4122 68.9563 95.9878 69.5219 97.7717C69.8048 98.6626 70.0191 99.3572 70.1583 99.8291C70.2975 100.301 70.3616 100.552 70.3417 100.559C70.324 100.566 70.2224 100.325 70.05 99.8621C69.8777 99.3991 69.6324 98.7155 69.3231 97.8312C68.7044 96.065 67.8316 93.5004 66.7688 90.3273C64.6409 83.9832 61.7551 75.2026 58.5843 65.5023V65.5068Z" fill="#004EB3" fill-opacity="0.11"/>
<path d="M56.2437 66.0183C54.6947 55.9565 53.2938 46.8516 52.2774 40.2496C51.7537 36.9596 51.3295 34.2958 51.0356 32.4457C50.8831 31.5306 50.7638 30.8184 50.6821 30.3266C50.6401 30.0907 50.6069 29.9077 50.5826 29.7776C50.5583 29.6541 50.5451 29.5901 50.5407 29.5923C50.5362 29.5923 50.5407 29.6563 50.5583 29.782C50.576 29.9143 50.6025 30.0973 50.6357 30.3355C50.7108 30.8294 50.8169 31.5416 50.9561 32.459C51.2499 34.309 51.672 36.9728 52.1934 40.2628C53.2717 46.8538 54.761 55.9476 56.405 65.994C58.0578 76.0361 59.5382 85.1321 60.5701 91.7231C61.0872 95.0175 61.4915 97.6879 61.7567 99.5336C61.8892 100.457 61.9865 101.174 62.0461 101.661C62.1058 102.149 62.1279 102.407 62.108 102.409C62.0881 102.411 62.0307 102.16 61.9356 101.677C61.8406 101.194 61.7125 100.482 61.5512 99.5622C61.2308 97.7232 60.7889 95.0594 60.2585 91.7672C59.1957 85.1806 57.786 76.0757 56.2459 66.0161L56.2437 66.0183Z" fill="#004EB3" fill-opacity="0.11"/>
<path d="M53.8507 66.175C53.9457 56.0051 54.0319 46.801 54.096 40.1284C54.1114 36.8009 54.1225 34.1063 54.1313 32.2341C54.1291 31.308 54.1269 30.5869 54.1247 30.0886C54.1203 29.8482 54.1181 29.663 54.1158 29.5307C54.1136 29.405 54.1092 29.3411 54.1048 29.3411C54.1004 29.3411 54.096 29.405 54.0915 29.5307C54.0893 29.663 54.0849 29.8482 54.0783 30.0886C54.0716 30.5869 54.0628 31.308 54.0518 32.2341C54.0429 34.1041 54.0297 36.7987 54.012 40.1284C54.012 46.801 54.012 56.0051 54.012 66.175C54.0186 76.3405 54.012 85.5467 53.9656 92.2105C53.9435 95.5424 53.9103 98.2393 53.875 100.103C53.8573 101.035 53.8374 101.759 53.8175 102.248C53.7977 102.74 53.7778 102.996 53.7601 102.996C53.7402 102.996 53.7225 102.738 53.7093 102.248C53.6938 101.756 53.6828 101.033 53.6717 100.103C53.654 98.2393 53.6474 95.5424 53.6562 92.2083C53.6717 85.5445 53.7513 76.3383 53.8529 66.1728L53.8507 66.175Z" fill="#004EB3" fill-opacity="0.11"/>
<path d="M51.4576 65.9743C53.201 55.9411 54.7764 46.8627 55.9188 40.2805C56.4712 36.9949 56.9198 34.3356 57.2313 32.4877C57.3794 31.5726 57.4921 30.8581 57.5716 30.3664C57.607 30.1283 57.6335 29.9452 57.6534 29.8129C57.671 29.6872 57.6777 29.6233 57.6732 29.6233C57.6688 29.6233 57.6534 29.685 57.629 29.8085C57.6047 29.9386 57.5694 30.1216 57.5252 30.3576C57.439 30.8493 57.3131 31.5594 57.1496 32.4723C56.838 34.3201 56.3872 36.9795 55.8326 40.2629C54.7521 46.8539 53.2628 55.9455 51.6167 65.9941C49.9794 76.0383 48.4812 85.1322 47.3543 91.7078C46.7931 94.9956 46.3247 97.6549 45.9866 99.4917C45.8187 100.409 45.6817 101.121 45.5822 101.604C45.4828 102.085 45.4209 102.336 45.4032 102.334C45.3834 102.332 45.4077 102.074 45.4717 101.587C45.5358 101.099 45.6419 100.383 45.7833 99.4609C46.0661 97.6174 46.497 94.9514 47.045 91.6614C48.1388 85.0792 49.7098 75.9986 51.4598 65.9721L51.4576 65.9743Z" fill="#004EB3" fill-opacity="0.11"/>
<path d="M49.126 65.4164C52.4935 55.7713 55.5428 47.0457 57.7502 40.7193C58.8351 37.5594 59.7145 34.9993 60.3244 33.222C60.6205 32.3399 60.8503 31.6519 61.0093 31.1778C61.0823 30.9485 61.1397 30.7721 61.1817 30.6442C61.2193 30.5229 61.2369 30.4612 61.2325 30.459C61.2281 30.459 61.2038 30.5185 61.1596 30.6354C61.1132 30.7611 61.0491 30.9353 60.9674 31.1624C60.8016 31.6343 60.5586 32.3179 60.2492 33.1955C59.6372 34.9728 58.7555 37.5307 57.6684 40.6906C55.5207 47.0369 52.5576 55.7911 49.2807 65.4649C46.0149 75.1364 43.043 83.8906 40.8532 90.2149C39.7573 93.377 38.8602 95.9327 38.2238 97.6945C37.9056 98.5744 37.6537 99.258 37.4769 99.7188C37.3002 100.18 37.1985 100.418 37.1787 100.413C37.161 100.407 37.2251 100.158 37.3687 99.6858C37.5123 99.2139 37.7333 98.5215 38.0249 97.6328C38.6061 95.8533 39.47 93.2866 40.5505 90.12C42.7115 83.787 45.752 75.0548 49.1282 65.4186L49.126 65.4164Z" fill="#004EB3" fill-opacity="0.11"/>
<path d="M46.9207 64.5123C51.8283 55.4957 56.2696 47.3368 59.4868 41.4228C61.0777 38.4657 62.3659 36.071 63.2586 34.4084C63.6961 33.5814 64.0342 32.9376 64.2706 32.4943C64.3811 32.2782 64.4673 32.1129 64.5269 31.9938C64.5844 31.8813 64.6109 31.8218 64.6065 31.8196C64.6021 31.8196 64.5689 31.8725 64.5048 31.9828C64.4386 32.0996 64.348 32.2628 64.2286 32.4745C63.9878 32.9155 63.6365 33.5528 63.1879 34.3731C62.293 36.0357 61.0026 38.4282 59.4095 41.3853C56.2475 47.328 51.8835 55.5244 47.0621 64.5829C42.2496 73.6414 37.879 81.8355 34.6795 87.7496C33.0797 90.7066 31.7738 93.0948 30.8568 94.7398C30.3994 95.5623 30.0393 96.1973 29.7874 96.6251C29.5377 97.0529 29.3963 97.2734 29.3808 97.2646C29.3631 97.2558 29.4692 97.0198 29.6901 96.5744C29.9089 96.1312 30.2403 95.4807 30.6756 94.6471C31.5418 92.9779 32.8145 90.5743 34.4033 87.6107C37.5763 81.6812 42.011 73.5179 46.9229 64.5101L46.9207 64.5123Z" fill="#004EB3" fill-opacity="0.11"/>
<path d="M44.8876 63.2884C51.2026 55.1185 56.9189 47.7271 61.0619 42.3687C63.1147 39.6851 64.7763 37.5131 65.9319 36.007C66.4976 35.255 66.9373 34.6707 67.2422 34.2672C67.3859 34.0709 67.4986 33.9188 67.5781 33.8107C67.6532 33.7071 67.6886 33.6519 67.6864 33.6497C67.6842 33.6475 67.64 33.696 67.5582 33.7953C67.4742 33.9011 67.3571 34.0466 67.2047 34.2385C66.8931 34.6376 66.4446 35.2153 65.8656 35.9585C64.71 37.4668 63.0462 39.6366 60.9912 42.318C56.899 47.7116 51.2535 55.1538 45.0157 63.3788C38.7868 71.6038 33.1346 79.0416 29.0093 84.4044C26.9477 87.0858 25.2684 89.249 24.0951 90.7352C23.5095 91.4784 23.0499 92.0517 22.7317 92.4376C22.4158 92.8235 22.2412 93.0197 22.2257 93.0087C22.2103 92.9977 22.3539 92.7794 22.6434 92.3736C22.9328 91.9679 23.3659 91.3769 23.9294 90.6162C25.0563 89.0991 26.7068 86.9138 28.7574 84.2258C32.8584 78.8454 38.5681 71.4473 44.8876 63.2862V63.2884Z" fill="#004EB3" fill-opacity="0.11"/>
<path d="M43.0783 61.7758C50.6418 54.6489 57.485 48.199 62.4478 43.522C64.9115 41.178 66.9045 39.2816 68.29 37.963C68.9705 37.3059 69.5008 36.7943 69.8676 36.4415C70.0422 36.2695 70.177 36.1372 70.272 36.0401C70.3626 35.9497 70.4068 35.9012 70.4046 35.899C70.4024 35.8968 70.3515 35.9387 70.2543 36.0247C70.1549 36.1173 70.0157 36.243 69.8323 36.4106C69.4611 36.759 68.9219 37.2618 68.2325 37.9101C66.8471 39.2265 64.8518 41.1229 62.3881 43.4647C57.4717 48.1836 50.6882 54.693 43.1932 61.8861C35.707 69.0813 28.9168 75.5863 23.9717 80.2677C21.4992 82.6095 19.4906 84.4949 18.0897 85.7871C17.3893 86.4332 16.8435 86.9315 16.4679 87.2667C16.0922 87.5997 15.889 87.7695 15.8757 87.7562C15.8624 87.743 16.0392 87.549 16.3905 87.1917C16.7419 86.8345 17.2655 86.3141 17.9461 85.6482C19.3072 84.3163 21.2893 82.4067 23.7508 80.056C28.6738 75.3526 35.5125 68.8961 43.0783 61.778V61.7758Z" fill="#004EB3" fill-opacity="0.11"/>
<path d="M41.5382 60.0139C50.1645 54.102 57.9711 48.7525 63.6299 44.8737C66.4427 42.9266 68.7208 41.35 70.3007 40.254C71.0807 39.705 71.6862 39.2794 72.106 38.9861C72.3071 38.8428 72.4617 38.7303 72.5722 38.6509C72.6761 38.5737 72.7291 38.5341 72.7269 38.5296C72.7247 38.5274 72.6672 38.5605 72.5589 38.6311C72.4463 38.7061 72.2872 38.8119 72.0817 38.9486C71.6574 39.2375 71.0454 39.6542 70.2565 40.1901C68.6744 41.2838 66.3963 42.8582 63.5813 44.8053C57.96 48.7326 50.2043 54.1505 41.6332 60.1374C33.0709 66.1286 25.3107 71.5399 19.6674 75.4275C16.8457 77.3702 14.5543 78.9336 12.9634 80.0031C12.168 80.5367 11.5471 80.9491 11.1206 81.2225C10.6963 81.4959 10.4665 81.6326 10.4555 81.6172C10.4445 81.6018 10.6499 81.4364 11.0565 81.1365C11.4609 80.8366 12.0641 80.4 12.8441 79.8443C14.4041 78.7329 16.6734 77.1409 19.4862 75.1849C25.1119 71.2753 32.914 65.9169 41.5426 60.0139H41.5382Z" fill="#004EB3" fill-opacity="0.11"/>
<path d="M40.3004 58.0402C49.784 53.4955 58.3684 49.383 64.5885 46.4017C67.6841 44.9 70.1898 43.6828 71.931 42.8404C72.7906 42.4171 73.4579 42.0863 73.9197 41.857C74.1406 41.7445 74.3108 41.6585 74.4345 41.5946C74.5494 41.535 74.6069 41.502 74.6069 41.4975C74.6069 41.4931 74.5428 41.5196 74.4235 41.5725C74.2997 41.6298 74.1252 41.7092 73.8998 41.8151C73.4358 42.0356 72.7618 42.3553 71.8957 42.7677C70.1545 43.61 67.6488 44.825 64.5509 46.3245C58.3574 49.3609 49.815 53.5484 40.3755 58.1769C30.9427 62.8098 22.3959 66.9929 16.1868 69.9852C13.0845 71.4824 10.5656 72.682 8.81999 73.4979C7.94719 73.9058 7.26663 74.219 6.80261 74.424C6.33859 74.6313 6.0889 74.7305 6.08227 74.7129C6.07344 74.6953 6.30545 74.563 6.754 74.327C7.20255 74.0911 7.86764 73.7515 8.72939 73.3193C10.4507 72.4549 12.952 71.2222 16.0476 69.7139C22.2412 66.6952 30.8211 62.5738 40.3048 58.0402H40.3004Z" fill="#004EB3" fill-opacity="0.11"/>
<path d="M39.4047 55.9058C49.5159 52.8496 58.666 50.0822 65.2992 48.0777C68.6026 47.0612 71.2762 46.2387 73.1345 45.6676C74.0515 45.3787 74.7674 45.1516 75.2602 44.9972C75.4966 44.92 75.68 44.8605 75.8104 44.8164C75.9341 44.7745 75.996 44.7503 75.996 44.748C75.996 44.7436 75.9297 44.7591 75.8037 44.7944C75.6712 44.8318 75.4855 44.8848 75.2469 44.9531C74.752 45.1009 74.0338 45.3148 73.1102 45.5904C71.2519 46.1593 68.5783 46.9796 65.2727 47.9939C58.6593 50.0579 49.5358 52.9047 39.4534 56.0492C29.3797 59.2002 20.2518 62.0404 13.6318 64.0581C10.3218 65.068 7.63932 65.8729 5.77882 66.4153C4.84857 66.6865 4.12603 66.8916 3.63328 67.0261C3.14054 67.1606 2.8798 67.2202 2.87318 67.2025C2.86655 67.1849 3.11623 67.0879 3.59793 66.9225C4.07963 66.7571 4.79333 66.5212 5.71474 66.2235C7.55756 65.6303 10.229 64.7902 13.5346 63.767C20.1457 61.7207 29.2958 58.9467 39.4047 55.8992V55.9058Z" fill="#004EB3" fill-opacity="0.11"/>
<path d="M38.8678 53.661C49.3546 52.1681 58.8449 50.8186 65.7234 49.8396C69.1527 49.3346 71.928 48.9267 73.8548 48.6422C74.8094 48.4945 75.5518 48.3798 76.0644 48.3004C76.3119 48.2585 76.5019 48.2276 76.6367 48.2056C76.7649 48.1835 76.8312 48.1681 76.8312 48.1659C76.8312 48.1615 76.7627 48.1659 76.6323 48.1835C76.4953 48.2012 76.3031 48.2254 76.0556 48.2563C75.543 48.3269 74.7983 48.4305 73.8416 48.565C71.9148 48.8473 69.1373 49.253 65.708 49.7558C58.8383 50.7944 49.3612 52.2299 38.8899 53.8131C28.4251 55.4052 18.9437 56.8319 12.0762 57.8242C8.64244 58.3204 5.86054 58.7107 3.93596 58.9665C2.97257 59.0944 2.22572 59.1892 1.71751 59.2465C1.2093 59.3038 0.941933 59.3259 0.937514 59.306C0.935304 59.2884 1.19825 59.2311 1.69983 59.1407C2.20362 59.0503 2.94605 58.9246 3.90503 58.7702C5.82076 58.4615 8.59604 58.0359 12.0298 57.5243C18.8951 56.5012 28.3854 55.1428 38.8678 53.6588V53.661Z" fill="#004EB3" fill-opacity="0.11"/>
<path d="M38.7035 51.3654C49.3053 51.4514 58.8994 51.5286 65.8531 51.5837C69.3222 51.5947 72.1306 51.6058 74.0795 51.6124C75.0451 51.608 75.7963 51.6058 76.3156 51.6058C76.5653 51.6013 76.7597 51.5991 76.8967 51.5969C77.0271 51.5947 77.0956 51.5903 77.0956 51.5859C77.0956 51.5815 77.0293 51.5771 76.8967 51.5749C76.7575 51.5727 76.5653 51.5683 76.3156 51.5617C75.7963 51.555 75.0451 51.5484 74.0795 51.5374C72.1284 51.5286 69.32 51.5176 65.8531 51.5043C58.8994 51.5087 49.3053 51.5131 38.7035 51.5198C28.1062 51.533 18.5121 51.5308 11.565 51.4911C8.09153 51.4712 5.2809 51.4426 3.33865 51.4095C2.36642 51.3919 1.61294 51.3742 1.10252 51.3566C0.587676 51.3367 0.320312 51.3169 0.320312 51.2993C0.320312 51.2816 0.589886 51.264 1.10031 51.2485C1.61294 51.2331 2.36642 51.2221 3.33865 51.211C5.2809 51.1912 8.09374 51.1846 11.565 51.1912C18.5121 51.2022 28.1062 51.2706 38.7035 51.3654Z" fill="#004EB3" fill-opacity="0.11"/>
<path d="M38.9121 49.0699C49.3702 50.7347 58.8362 52.243 65.6948 53.3345C69.1197 53.8638 71.8928 54.2915 73.8174 54.5892C74.7719 54.7304 75.5144 54.8384 76.0292 54.9134C76.2767 54.9465 76.4689 54.9729 76.6059 54.9906C76.7363 55.006 76.8026 55.0126 76.8026 55.0082C76.8026 55.0038 76.7385 54.9906 76.6081 54.9663C76.4711 54.9421 76.2811 54.909 76.0358 54.8671C75.5232 54.7833 74.783 54.6642 73.8306 54.5099C71.9061 54.2122 69.133 53.7822 65.7081 53.2507C58.8384 52.2188 49.3591 50.7943 38.8856 49.222C28.4164 47.6564 18.9372 46.2253 12.0807 45.1492C8.65361 44.6112 5.88054 44.1658 3.96701 43.8416C3.01025 43.6806 2.26782 43.5505 1.76624 43.4557C1.26465 43.3609 1.00171 43.3014 1.00392 43.2837C1.00613 43.2661 1.2757 43.2881 1.78391 43.3499C2.29213 43.4116 3.03898 43.5108 4.00016 43.6476C5.92252 43.9188 8.70001 44.3289 12.1315 44.8537C18.9924 45.899 28.4584 47.4006 38.9121 49.0721V49.0699Z" fill="#004EB3" fill-opacity="0.11"/>
<path d="M39.4926 46.834C49.5463 50.0601 58.6455 52.9774 65.2412 55.0921C68.5358 56.1307 71.205 56.9731 73.0567 57.5574C73.9759 57.8397 74.6918 58.0602 75.1867 58.2123C75.4254 58.2829 75.611 58.338 75.7435 58.3755C75.8695 58.4108 75.9336 58.4284 75.9358 58.424C75.9358 58.4196 75.8739 58.3953 75.7524 58.3535C75.622 58.3093 75.4408 58.2476 75.2044 58.1682C74.7117 58.0095 74.0002 57.7779 73.0854 57.4802C71.2337 56.8937 68.5667 56.0513 65.2722 55.0083C58.6566 52.951 49.5309 50.113 39.444 46.9774C29.3615 43.8505 20.2358 41.006 13.6423 38.9067C10.3456 37.8571 7.68076 36.9971 5.84457 36.3885C4.92537 36.0842 4.21388 35.8438 3.73439 35.674C3.2549 35.5043 3.00522 35.4072 3.01185 35.3896C3.01848 35.3719 3.27921 35.4359 3.76975 35.5726C4.26028 35.7093 4.98282 35.921 5.90865 36.2011C7.76252 36.759 10.4384 37.5837 13.7395 38.6201C20.3419 40.6906 29.4455 43.6014 39.4926 46.8318V46.834Z" fill="#004EB3" fill-opacity="0.11"/>
<path d="M40.4314 44.715C49.8333 49.4163 58.3403 53.6721 64.5051 56.757C67.5897 58.2808 70.0866 59.5156 71.8189 60.3712C72.6807 60.7902 73.3524 61.1143 73.8142 61.3392C74.0396 61.4451 74.2119 61.5267 74.3357 61.5862C74.455 61.6413 74.5147 61.6656 74.5169 61.6634C74.5169 61.659 74.4616 61.6259 74.3467 61.5663C74.2252 61.5024 74.0551 61.4164 73.8341 61.3017C73.3745 61.0702 72.7094 60.735 71.8543 60.3028C70.1219 59.445 67.6251 58.2102 64.5427 56.6821C58.3469 53.6523 49.8001 49.4714 40.3562 44.8517C30.9123 40.2409 22.3678 36.0534 16.2007 32.9861C13.1161 31.4536 10.6259 30.2011 8.9134 29.3234C8.05607 28.8846 7.39319 28.5384 6.94685 28.3003C6.5005 28.0599 6.2707 27.9254 6.27954 27.91C6.28838 27.8945 6.53586 27.996 6.99767 28.2055C7.45948 28.4149 8.13783 28.7325 9.00842 29.1492C10.7474 29.9806 13.2553 31.2 16.3443 32.7215C22.5268 35.7623 31.0383 40.0115 40.4314 44.7194V44.715Z" fill="#004EB3" fill-opacity="0.11"/>
<path d="M41.7059 42.7655C50.224 48.8207 57.9333 54.2982 63.5214 58.2696C66.3188 60.2365 68.5836 61.8308 70.1569 62.9377C70.9413 63.4802 71.5489 63.9014 71.971 64.1946C72.1765 64.3336 72.3334 64.4394 72.4461 64.5166C72.5543 64.5872 72.6096 64.6224 72.614 64.6202C72.6162 64.618 72.5654 64.5761 72.4615 64.499C72.351 64.4174 72.1986 64.3071 71.9997 64.1594C71.5843 63.8617 70.9811 63.4295 70.2055 62.876C68.6345 61.769 66.3696 60.1748 63.5744 58.2034C57.9488 54.2805 50.1886 48.8692 41.6109 42.8912C33.0331 36.922 25.2774 31.5019 19.6849 27.5482C16.8897 25.5724 14.6337 23.9605 13.0825 22.8381C12.307 22.2758 11.7082 21.8348 11.306 21.5327C10.9039 21.2284 10.6984 21.0608 10.7094 21.0475C10.7205 21.0321 10.948 21.171 11.3723 21.4467C11.7943 21.7245 12.413 22.1391 13.2041 22.6793C14.7861 23.7598 17.0643 25.3409 19.8683 27.3078C25.4785 31.2373 33.1945 36.7125 41.7037 42.7699L41.7059 42.7655Z" fill="#004EB3" fill-opacity="0.11"/>
<path d="M43.2825 41.0279C50.7156 48.2805 57.4439 54.8428 62.3205 59.5992C64.7644 61.9609 66.7442 63.8727 68.1186 65.2001C68.8036 65.8529 69.3383 66.36 69.7073 66.7128C69.8863 66.8804 70.0255 67.0083 70.1249 67.1009C70.2199 67.1869 70.2707 67.231 70.2729 67.2266C70.2752 67.2244 70.231 67.1759 70.1426 67.0833C70.0476 66.9863 69.9128 66.854 69.7404 66.6798C69.3781 66.3225 68.8522 65.8088 68.176 65.145C66.8016 63.8176 64.8262 61.9035 62.3824 59.5397C57.4616 54.8252 50.6715 48.3224 43.1698 41.1359C35.666 33.9584 28.8802 27.4489 23.9992 22.708C21.5576 20.3375 19.591 18.4102 18.2409 17.0695C17.567 16.3992 17.0455 15.8744 16.6986 15.5149C16.3517 15.1555 16.1749 14.9593 16.1882 14.946C16.2015 14.9328 16.4047 15.1026 16.776 15.44C17.1494 15.7774 17.6907 16.2801 18.3846 16.9306C19.7722 18.2338 21.7653 20.1368 24.2179 22.4963C29.1233 27.2152 35.856 33.7753 43.2803 41.0279H43.2825Z" fill="#004EB3" fill-opacity="0.11"/>
<path d="M45.1171 39.5484C51.2841 47.8219 56.8656 55.3082 60.9114 60.735C62.9443 63.4318 64.5882 65.6171 65.7306 67.132C66.3029 67.8795 66.747 68.4616 67.0541 68.863C67.2044 69.0548 67.3215 69.2025 67.4033 69.3084C67.4828 69.4076 67.5248 69.4583 67.5292 69.4561C67.5336 69.4539 67.4961 69.3988 67.4232 69.2952C67.3436 69.1871 67.2353 69.035 67.0917 68.8365C66.7912 68.4308 66.3559 67.842 65.7969 67.0878C64.6567 65.5707 63.0128 63.3855 60.9821 60.6865C56.8855 55.295 51.2333 47.8572 44.9867 39.6388C38.7379 31.4293 33.0902 23.9849 29.0355 18.5736C27.0071 15.8679 25.3764 13.6716 24.2627 12.1435C23.7059 11.3805 23.2773 10.7852 22.9922 10.3772C22.7072 9.96927 22.5658 9.75096 22.5812 9.73994C22.5967 9.72891 22.769 9.92737 23.0828 10.3155C23.3966 10.7036 23.8518 11.2813 24.4307 12.0288C25.5907 13.5239 27.2523 15.7003 29.2918 18.3971C33.3708 23.7908 38.9611 31.2749 45.1171 39.5484Z" fill="#004EB3" fill-opacity="0.11"/>
<path d="M47.1727 38.3621C51.9167 47.4582 56.2078 55.6898 59.3211 61.6568C60.8877 64.6248 62.1583 67.0284 63.0377 68.6976C63.4796 69.5224 63.8243 70.1618 64.063 70.605C64.1801 70.8167 64.2707 70.9799 64.3347 71.099C64.3966 71.2092 64.432 71.2644 64.4342 71.2644C64.4386 71.2644 64.4121 71.2026 64.3546 71.0902C64.295 70.9711 64.211 70.8035 64.1027 70.5874C63.8729 70.142 63.5371 69.4959 63.1084 68.6646C62.229 66.9953 60.9607 64.5896 59.3963 61.6193C56.2277 55.681 51.857 47.4868 47.0268 38.4327C42.1922 29.3874 37.826 21.1889 34.7038 15.2351C33.1416 12.2582 31.8888 9.84365 31.0381 8.16999C30.6116 7.33205 30.2846 6.67934 30.0702 6.23391C29.8559 5.78848 29.7498 5.55033 29.7675 5.54151C29.7852 5.53269 29.9222 5.75541 30.1697 6.1854C30.4171 6.61539 30.7707 7.25487 31.2215 8.07958C32.123 9.73119 33.409 12.1281 34.9844 15.0984C38.1353 21.0389 42.4353 29.2683 47.1682 38.3644L47.1727 38.3621Z" fill="#004EB3" fill-opacity="0.11"/>
<path d="M49.3984 37.4998C52.5913 47.1978 55.4793 55.9763 57.574 62.338C58.6346 65.5067 59.4942 68.0713 60.0908 69.853C60.3935 70.7328 60.6277 71.4186 60.7912 71.8905C60.873 72.1176 60.9348 72.294 60.979 72.4175C61.0232 72.5366 61.0475 72.5961 61.0519 72.5939C61.0564 72.5939 61.0387 72.53 61.0033 72.4087C60.9636 72.2808 60.9083 72.1044 60.8376 71.8728C60.6829 71.3965 60.4598 70.7085 60.1703 69.8243C59.5759 68.0426 58.7186 65.4759 57.6602 62.3071C55.5058 55.9631 52.5317 47.2133 49.246 37.5417C45.9536 27.879 42.9883 19.1226 40.8804 12.7719C39.8264 9.59654 38.9845 7.02319 38.4189 5.24148C38.136 4.35062 37.9195 3.65601 37.7803 3.18412C37.6411 2.71223 37.577 2.46085 37.5947 2.45423C37.6123 2.44762 37.714 2.68797 37.8863 3.15104C38.0587 3.61411 38.3062 4.29769 38.6155 5.17973C39.2364 6.94601 40.1114 9.50833 41.1809 12.6793C43.3176 19.0211 46.2144 27.7974 49.3984 37.4932V37.4998Z" fill="#004EB3" fill-opacity="0.11"/>
<path d="M51.7364 36.9839C53.2986 47.0436 54.7128 56.1484 55.738 62.7461C56.2661 66.0361 56.6948 68.6976 56.9909 70.5477C57.1456 71.4628 57.2649 72.1751 57.3489 72.6668C57.3908 72.9027 57.424 73.0858 57.4483 73.2159C57.4726 73.3393 57.4859 73.4033 57.4903 73.4011C57.4947 73.4011 57.4903 73.3371 57.4726 73.2114C57.4549 73.0791 57.4284 72.8961 57.3953 72.658C57.3201 72.1662 57.2119 71.4518 57.0727 70.5345C56.7766 68.6844 56.3523 66.0228 55.8264 62.7328C54.7393 56.144 53.239 47.0524 51.5796 37.006C49.9135 26.9662 48.422 17.8724 47.3813 11.2836C46.8598 7.98914 46.4532 5.32098 46.1859 3.47531C46.0511 2.55138 45.9539 1.83472 45.8942 1.3474C45.8346 0.860069 45.8125 0.602073 45.8301 0.599868C45.85 0.597663 45.9097 0.849044 46.0047 1.33196C46.0997 1.81488 46.2301 2.52712 46.3914 3.44665C46.714 5.2857 47.1603 7.94725 47.695 11.2395C48.7645 17.8239 50.1875 26.9287 51.7409 36.9861L51.7364 36.9839Z" fill="#004EB3" fill-opacity="0.11"/>
<path d="M54.1307 36.8251C54.0489 46.995 53.9738 56.1991 53.9208 62.8717C53.9097 66.1992 53.9031 68.8938 53.8965 70.7659C53.9009 71.6921 53.9031 72.4131 53.9053 72.9115C53.9097 73.1518 53.912 73.3371 53.9142 73.4694C53.9186 73.5951 53.9208 73.659 53.9252 73.659C53.9296 73.659 53.934 73.5951 53.9385 73.4694C53.9407 73.3371 53.9451 73.1518 53.9517 72.9115C53.9584 72.4131 53.965 71.6921 53.976 70.7659C53.9827 68.896 53.9937 66.2014 54.0048 62.8717C53.9959 56.1991 53.9849 46.995 53.9716 36.8251C53.9517 26.6596 53.9473 17.4533 53.9849 10.7895C54.0025 7.45763 54.0313 4.7608 54.0644 2.8975C54.0821 1.96474 54.0998 1.24147 54.1174 0.751938C54.1373 0.257996 54.1572 0 54.1749 0C54.1948 0 54.2125 0.257996 54.2279 0.747527C54.2434 1.23926 54.2567 1.96253 54.2677 2.89309C54.2898 4.75639 54.2986 7.45322 54.2942 10.7873C54.2876 17.4511 54.2213 26.6574 54.1307 36.8229V36.8251Z" fill="#004EB3" fill-opacity="0.11"/>
<path d="M56.5241 37.0235C54.7962 47.0589 53.2296 56.1394 52.096 62.7217C51.548 66.0072 51.1039 68.6688 50.7946 70.5167C50.6487 71.434 50.536 72.1462 50.4565 72.638C50.4211 72.8761 50.3946 73.0591 50.3747 73.1914C50.3571 73.3171 50.3504 73.3811 50.3548 73.3811C50.3593 73.3811 50.3747 73.3193 50.399 73.1959C50.4233 73.0658 50.4587 72.8827 50.5029 72.6468C50.5891 72.1551 50.715 71.445 50.8741 70.5299C51.1834 68.682 51.6298 66.0227 52.1822 62.7371C53.2539 56.1461 54.7321 47.05 56.365 37.0014C57.9891 26.955 59.4739 17.8612 60.592 11.2834C61.1488 7.99339 61.615 5.33405 61.9487 3.49941C62.1166 2.58209 62.2514 1.86984 62.3508 1.38693C62.4503 0.90401 62.5099 0.652629 62.5298 0.657039C62.5497 0.659245 62.5254 0.917241 62.4613 1.40457C62.3972 1.89189 62.2934 2.60855 62.1542 3.53028C61.8736 5.37374 61.4471 8.0397 60.9035 11.3319C59.8186 17.9141 58.2608 26.9991 56.5241 37.0279V37.0235Z" fill="#004EB3" fill-opacity="0.11"/>
<path d="M58.855 37.577C55.5008 47.2243 52.4647 55.9565 50.264 62.2851C49.1835 65.4472 48.3085 68.0073 47.6986 69.7846C47.4047 70.6666 47.1749 71.3546 47.018 71.8287C46.9451 72.0581 46.8877 72.2345 46.8479 72.3624C46.8103 72.4837 46.7949 72.5454 46.7971 72.5476C46.8015 72.5476 46.8258 72.4881 46.87 72.3712C46.9164 72.2455 46.9805 72.0713 47.0622 71.8442C47.228 71.3723 47.4688 70.6887 47.7782 69.8111C48.388 68.0338 49.2652 65.4737 50.3479 62.3138C52.4868 55.9653 55.4389 47.2066 58.7003 37.5307C61.9528 27.8547 64.9115 19.0983 67.0946 12.7719C68.1862 9.60756 69.081 7.05186 69.713 5.28999C70.029 4.40795 70.2809 3.72658 70.4576 3.26571C70.6344 2.80485 70.7361 2.56669 70.7537 2.57111C70.7714 2.57772 70.7073 2.8269 70.5637 3.29879C70.4201 3.77068 70.2013 4.46308 69.9119 5.35173C69.333 7.13124 68.4734 9.69797 67.3951 12.8667C65.2429 19.2041 62.2136 27.9385 58.8505 37.5792L58.855 37.577Z" fill="#004EB3" fill-opacity="0.11"/>
<path d="M61.062 38.4789C56.1677 47.5 51.7374 55.6655 48.5268 61.5839C46.9403 64.5432 45.6565 66.9401 44.7638 68.6027C44.3285 69.4297 43.9905 70.0735 43.7563 70.519C43.6458 70.7351 43.5618 70.9005 43.4999 71.0195C43.4425 71.132 43.416 71.1915 43.4204 71.1937C43.4248 71.1937 43.458 71.1408 43.522 71.0306C43.5883 70.9137 43.6789 70.7505 43.7982 70.5388C44.0391 70.0978 44.3882 69.4583 44.8368 68.638C45.7294 66.9754 47.0154 64.5807 48.6042 61.6214C51.7595 55.6765 56.1102 47.4735 60.9206 38.4084C65.7198 29.3454 70.0794 21.1447 73.2723 15.2262C74.8676 12.267 76.1713 9.87665 77.0861 8.23165C77.5435 7.40914 77.9014 6.77187 78.1511 6.34408C78.4008 5.91629 78.54 5.69358 78.5577 5.7024C78.5754 5.71122 78.4693 5.94717 78.2506 6.3926C78.0318 6.83582 77.7004 7.48632 77.2695 8.32205C76.4055 9.99131 75.135 12.3971 73.5507 15.3629C70.3843 21.2946 65.9607 29.4645 61.062 38.4789Z" fill="#004EB3" fill-opacity="0.11"/>
<path d="M63.097 39.6984C56.793 47.8748 51.0856 55.2751 46.9514 60.6379C44.9031 63.3237 43.2436 65.498 42.0902 67.0062C41.5245 67.7582 41.0848 68.3425 40.7821 68.7461C40.6385 68.9423 40.5258 69.0945 40.4463 69.2025C40.3711 69.3062 40.3358 69.3613 40.338 69.3635C40.3402 69.3657 40.3844 69.3172 40.4639 69.218C40.5479 69.1121 40.665 68.9644 40.8175 68.7747C41.1268 68.3756 41.5776 67.7979 42.1543 67.0526C43.3077 65.5443 44.9671 63.37 47.0199 60.6864C51.1054 55.2862 56.74 47.8374 62.9667 39.6057C69.1845 31.3741 74.8257 23.9275 78.9444 18.5603C81.0037 15.8767 82.6808 13.7113 83.8497 12.2251C84.4353 11.482 84.8949 10.9064 85.2109 10.5205C85.5268 10.1346 85.7014 9.93839 85.7169 9.94941C85.7323 9.96044 85.5887 10.1787 85.3014 10.5845C85.0142 10.9902 84.5811 11.5834 84.0177 12.3419C82.8908 13.8613 81.2446 16.0465 79.1985 18.7389C75.1063 24.1238 69.4055 31.5285 63.097 39.6984Z" fill="#004EB3" fill-opacity="0.11"/>
<path d="M64.9082 41.2088C57.3535 48.3445 50.5192 54.8032 45.563 59.4846C43.1037 61.8308 41.1129 63.7316 39.7297 65.0503C39.0491 65.7096 38.521 66.2212 38.1542 66.574C37.9796 66.746 37.8449 66.8805 37.7498 66.9753C37.6593 67.0657 37.6151 67.1143 37.6173 67.1187C37.6195 67.1209 37.6703 67.079 37.7653 66.993C37.8647 66.9004 38.004 66.7725 38.1851 66.6071C38.5564 66.2587 39.0933 65.7537 39.7849 65.1054C41.1681 63.7868 43.1612 61.8882 45.6227 59.5442C50.5325 54.8209 57.3071 48.3026 64.7933 41.1007C72.2707 33.8967 79.052 27.3829 83.9905 22.697C86.4586 20.353 88.4671 18.4654 89.8636 17.1689C90.5619 16.5206 91.1076 16.0222 91.4833 15.687C91.8589 15.3541 92.0622 15.1843 92.0754 15.1975C92.0887 15.2107 91.9119 15.4048 91.5606 15.762C91.2093 16.1192 90.6856 16.6396 90.0072 17.3078C88.6483 18.6396 86.6685 20.5537 84.2092 22.9087C79.2928 27.6166 72.4607 34.0819 64.906 41.2088H64.9082Z" fill="#004EB3" fill-opacity="0.11"/>
<path d="M66.4527 42.9706C57.833 48.8935 50.0331 54.2519 44.3809 58.1372C41.5702 60.0887 39.2965 61.6676 37.7167 62.7657C36.9389 63.3148 36.3334 63.7426 35.9136 64.0359C35.7125 64.1814 35.5601 64.2917 35.4496 64.371C35.3457 64.4482 35.2927 64.4879 35.2971 64.4923C35.2993 64.4945 35.3568 64.4615 35.4651 64.3909C35.5778 64.3159 35.7368 64.2101 35.9423 64.0734C36.3644 63.7845 36.9787 63.3655 37.7653 62.8297C39.3451 61.7337 41.6211 60.1549 44.4339 58.2056C50.0507 54.2717 57.7999 48.845 66.3621 42.8471C74.9155 36.847 82.6691 31.4247 88.308 27.5305C91.1275 25.5834 93.4166 24.0178 95.0054 22.9461C95.8008 22.4103 96.4217 22.0001 96.846 21.7245C97.2702 21.4511 97.5 21.3144 97.5111 21.3298C97.5221 21.3452 97.3166 21.5106 96.9123 21.8105C96.5079 22.1104 95.9069 22.5492 95.1269 23.1049C93.5691 24.2185 91.302 25.8127 88.4914 27.7709C82.8724 31.6893 75.0746 37.0543 66.4549 42.9684L66.4527 42.9706Z" fill="#004EB3" fill-opacity="0.11"/>
<path d="M67.6885 44.942C58.2092 49.4977 49.6337 53.6213 43.4159 56.6114C40.3224 58.1175 37.8167 59.3369 36.0777 60.1814C35.2204 60.607 34.5509 60.9378 34.0913 61.1671C33.8703 61.2796 33.7002 61.3678 33.5764 61.4295C33.4615 61.489 33.4041 61.5221 33.4063 61.5265C33.4063 61.5309 33.4704 61.5045 33.5875 61.4516C33.7112 61.3942 33.8858 61.3126 34.1112 61.209C34.5752 60.9863 35.2491 60.6665 36.1153 60.2542C37.8543 59.4096 40.36 58.1924 43.4556 56.6886C49.6448 53.6455 58.1827 49.447 67.6156 44.8075C77.0418 40.1636 85.5842 35.9695 91.7866 32.9706C94.8889 31.4711 97.4034 30.2671 99.149 29.449C100.022 29.0389 100.702 28.7257 101.166 28.5185C101.63 28.3112 101.878 28.212 101.887 28.2274C101.896 28.245 101.664 28.3773 101.217 28.6133C100.769 28.8492 100.104 29.191 99.244 29.6232C97.5227 30.4898 95.0259 31.7247 91.9302 33.2374C85.741 36.2628 77.1655 40.3951 67.6885 44.942Z" fill="#004EB3" fill-opacity="0.11"/>
<path d="M68.5911 47.0767C58.4843 50.1462 49.3365 52.9224 42.7077 54.9357C39.4065 55.9566 36.7329 56.7813 34.8768 57.3546C33.9598 57.6457 33.2461 57.8706 32.7534 58.0272C32.517 58.1044 32.3336 58.1661 32.2032 58.208C32.0794 58.2499 32.0176 58.2742 32.0176 58.2786C32.0176 58.283 32.0839 58.2676 32.2098 58.2323C32.3424 58.1948 32.528 58.1419 32.7666 58.0713C33.2616 57.9236 33.9797 57.7075 34.9011 57.4296C36.7572 56.8585 39.4308 56.0338 42.7342 55.015C49.3454 52.9445 58.4645 50.0844 68.5425 46.9267C78.6117 43.7624 87.7352 40.9112 94.3552 38.8848C97.663 37.8704 100.346 37.0634 102.204 36.5187C103.132 36.2453 103.857 36.0402 104.347 35.9057C104.84 35.7712 105.101 35.7094 105.107 35.7271C105.114 35.7447 104.864 35.8417 104.382 36.0071C103.901 36.1725 103.187 36.4106 102.268 36.7083C100.427 37.3037 97.7558 38.1483 94.4525 39.1736C87.8435 41.2288 78.6979 44.0138 68.5933 47.0723L68.5911 47.0767Z" fill="#004EB3" fill-opacity="0.11"/>
<path d="M69.1306 49.3191C58.646 50.8252 49.1579 52.1858 42.2794 53.1736C38.85 53.683 36.0748 54.0954 34.148 54.3798C33.1934 54.5276 32.4532 54.6444 31.9406 54.7238C31.6931 54.7657 31.5031 54.7966 31.3683 54.8186C31.2401 54.8407 31.1738 54.8561 31.1738 54.8583C31.1738 54.8627 31.2423 54.8583 31.3705 54.8407C31.5075 54.823 31.6997 54.7988 31.9472 54.7657C32.4598 54.6929 33.2045 54.5893 34.1612 54.4548C36.088 54.1703 38.8633 53.7602 42.2926 53.253C49.1601 52.2056 58.6349 50.7591 69.1063 49.1626C79.5688 47.5573 89.0481 46.1195 95.9156 45.1184C99.3493 44.6179 102.131 44.2232 104.054 43.9652C105.015 43.8373 105.764 43.7402 106.272 43.6829C106.78 43.6256 107.048 43.6035 107.052 43.6212C107.056 43.6388 106.793 43.6961 106.29 43.7888C105.786 43.8792 105.043 44.0048 104.087 44.1614C102.171 44.4723 99.3957 44.9023 95.9642 45.4161C89.1011 46.4481 79.613 47.8175 69.1306 49.3147V49.3191Z" fill="#004EB3" fill-opacity="0.11"/>
<path opacity="0.2" d="M66.6379 49.2847L65.6328 41.8316L56.5062 37.3886L54.1658 28.0016L46.2982 21.334L41.1879 29.418L32.5257 21.4371L27.3887 26.4512L32.8332 47.4745L46.4963 57.6593L57.9365 57.3439L66.6379 49.2847Z" fill="url(#paint0_linear_459_1508)"/>
</g>
<path d="M67.5364 44.344L66.5312 36.8909L57.4047 32.4479L55.0642 23.0609L47.1966 16.3933L42.0864 24.4773L33.4242 16.4964L28.2871 21.5105L33.7317 42.5338L47.3947 52.7187L58.8349 52.4032L67.5364 44.344Z" fill="url(#paint1_linear_459_1508)"/>
<path d="M50.346 71.6804C50.3045 61.1247 50.9594 50.5753 50.748 40.0196C50.7045 37.8685 50.6278 35.7153 50.4268 33.5724C50.1636 30.7984 49.6745 27.6738 47.2311 25.931C46.1949 25.1926 44.8706 24.7884 43.6002 25.0379C42.1682 25.3205 41.0657 26.4012 40.3756 27.6305C39.0223 30.0394 38.7093 33.0196 39.043 35.7235C39.7227 41.2097 43.3598 46.0667 48.6155 47.9683C53.8069 49.8472 59.9745 48.8449 64.0427 45.0458C67.9782 41.3664 70.0941 35.1625 68.3595 29.9363C67.5596 27.5253 65.5472 24.8544 62.6997 25.0916C59.8315 25.3308 58.4761 28.2286 57.9145 30.6891C57.3052 33.3496 57.1311 36.1463 56.9114 38.8605C56.6627 41.9191 56.497 44.9839 56.3602 48.0488C56.0804 54.3331 55.9457 60.6235 55.6597 66.9078C55.5955 68.333 55.5208 69.7582 55.4338 71.1812C55.3861 71.9423 56.5757 72.0145 56.6213 71.2514C57.328 59.8295 57.1912 48.3581 58.273 36.961C58.5114 34.4448 58.644 31.7595 59.5455 29.3753C59.9579 28.2863 60.6024 27.1396 61.6822 26.5889C62.7951 26.0238 64.0282 26.2445 65.0063 26.9684C67.1347 28.5441 67.7751 31.4955 67.7399 33.9869C67.7026 36.5506 66.9482 39.0936 65.6011 41.2798C62.7992 45.8254 57.672 48.1952 52.3687 47.628C47.1026 47.065 42.7547 43.6104 40.9621 38.6625C40.0896 36.2556 39.8554 33.5683 40.3921 31.0624C40.8792 28.7896 42.334 25.4443 45.2623 26.2754C48.1699 27.1025 48.8787 30.3776 49.1751 32.9722C49.3968 34.9171 49.4818 36.8764 49.5357 38.8316C49.8113 48.7562 49.2745 58.6869 49.1709 68.6094C49.1606 69.6097 49.1564 70.612 49.1585 71.6123C49.1606 72.3713 50.3501 72.4476 50.346 71.6824V71.6804Z" fill="#C0D0DD"/>
<path d="M23.3204 36.0017C23.2916 25.4882 28.6183 16.2107 36.7346 10.7415L32.9725 19.863L35.643 26.8268L38.8624 26.911L42.4539 30.4052L46.3044 38.0445L55.6563 39.4836L59.7844 47.0387L62.4981 45.3634L63.9515 39.0586L68.3962 38.0711L73.9798 39.3194L77.596 31.3229C77.596 31.3229 81.5349 29.5717 83.2967 28.9496C83.8168 31.1607 84.1047 33.4621 84.1108 35.8293C84.1458 47.9667 77.0388 58.4555 66.7433 63.3417C66.7536 66.9385 66.7659 70.9994 66.7659 70.9994L40.1267 71.0733C40.1267 71.0733 39.954 66.7764 39.8841 62.9393C30.082 57.9258 23.3554 47.7552 23.3225 35.9997L23.3204 36.0017Z" fill="url(#paint2_linear_459_1508)"/>
<path opacity="0.6" d="M38.5422 27.4875L42.1688 31.0014L46.0592 38.6791L55.5079 40.1255L59.3671 47.149L62.5887 45.1951L64.2919 39.8118L68.3817 38.7038L70.5772 44.1613L62.2688 55.163L60.5698 68.3663L45.7082 68.5499L41.8594 46.92L34.791 38.8833L36.596 28.3603L38.5422 27.4875Z" fill="url(#paint3_linear_459_1508)"/>
<path d="M58.6736 90.0195C58.6736 90.0195 57.5797 90.7329 56.9316 91.5699C56.5952 92.0049 56.0648 92.2482 55.5137 92.2482L50.1311 92.2585C49.5284 92.2585 48.9588 91.9658 48.6224 91.4668C48.2261 90.8813 47.5182 90.1906 46.7793 90.0401L58.6736 90.0154V90.0195Z" fill="url(#paint4_linear_459_1508)"/>
<path d="M64.4713 75.0369C64.4713 75.1441 63.2413 83.5456 62.7686 86.7577C62.5746 88.0772 61.7635 89.2503 60.5499 89.8049C60.1062 90.007 59.5964 90.143 59.0185 90.143C56.7111 90.1472 47.246 90.1678 47.246 90.1678C47.246 90.1678 44.1687 90.174 43.467 87.737C42.7281 85.1723 41.3164 75.0843 41.3164 75.0843L64.4693 75.0369H64.4713Z" fill="#93B5D5"/>
<path d="M42.7187 86.6133L63.2257 86.6442C63.5477 86.6442 63.8098 86.3845 63.8098 86.0628V85.9989C63.8098 85.6773 63.5497 85.4154 63.2277 85.4154L42.7208 85.3845C42.3988 85.3845 42.1367 85.6443 42.1367 85.9659V86.0298C42.1367 86.3515 42.3968 86.6133 42.7187 86.6133Z" fill="#416696"/>
<path d="M42.2773 83.9683L63.6532 83.9992C63.9752 83.9992 64.2373 83.7394 64.2373 83.4178V83.3539C64.2373 83.0323 63.9772 82.7704 63.6552 82.7704L42.2794 82.7395C41.9574 82.7395 41.6953 82.9993 41.6953 83.3209V83.3848C41.6953 83.7064 41.9554 83.9683 42.2773 83.9683Z" fill="#416696"/>
<path d="M41.9961 81.323L63.9271 81.356C64.2491 81.356 64.5112 81.0962 64.5112 80.7746V80.7107C64.5112 80.3891 64.2512 80.1272 63.9292 80.1272L41.9981 80.0942C41.6762 80.0942 41.4141 80.354 41.4141 80.6756V80.7396C41.4141 81.0612 41.6741 81.323 41.9961 81.323Z" fill="#416696"/>
<path d="M41.5449 78.678L64.3655 78.711C64.6875 78.711 64.9496 78.4512 64.9496 78.1296V78.0657C64.9496 77.744 64.6895 77.4822 64.3676 77.4822L41.547 77.4492C41.225 77.4492 40.9629 77.709 40.9629 78.0306V78.0945C40.9629 78.4162 41.2229 78.678 41.5449 78.678Z" fill="#E0E0E0"/>
<path d="M67.4239 67.7798C67.4239 67.9983 66.9492 73.1423 66.7057 75.7834C66.6148 76.7524 66.0865 77.6265 65.2692 78.1564L64.0701 78.9357L41.3093 78.9811L40.1246 78.2183C39.295 77.6843 38.7604 76.7977 38.6758 75.8164L37.9844 67.8396L67.426 67.7798H67.4239Z" fill="url(#paint5_linear_459_1508)"/>
<g opacity="0.3">
<path d="M62.4615 86.5928C60.2696 87.0938 58.084 87.1391 55.6774 87.1329C53.7353 87.1288 51.8303 87.1865 49.721 87.1474C48.1752 87.1185 46.7531 87.0443 45.2114 86.9804C44.4312 86.9474 43.5768 86.7536 43.4199 86.5969H62.4615V86.5928Z" fill="black"/>
</g>
<g opacity="0.3">
<path d="M63.3459 83.9197C60.9828 84.4207 58.6279 84.466 56.0335 84.4619C53.9387 84.4578 51.8851 84.5155 49.6107 84.4763C47.9451 84.4475 46.4116 84.3733 44.7502 84.3093C43.9081 84.2784 42.9876 84.0826 42.8184 83.9259L63.3459 83.9197Z" fill="black"/>
</g>
<g opacity="0.3">
<path d="M63.2639 81.3108C60.9007 81.8118 58.5458 81.8571 55.9515 81.853C53.8566 81.8489 51.8031 81.9066 49.5286 81.8675C47.8631 81.8386 46.3296 81.7644 44.6681 81.7005C43.8281 81.6695 42.9056 81.4737 42.7363 81.317L63.2639 81.3108Z" fill="black"/>
</g>
<g opacity="0.3">
<path d="M63.2561 78.6843C60.8929 79.1853 58.538 79.2307 55.9437 79.2266C53.8488 79.2224 51.7952 79.2802 49.5208 79.241C47.8552 79.2121 46.3218 79.1379 44.6603 79.074C43.8203 79.0431 42.8978 78.8472 42.7285 78.6905L63.2561 78.6843Z" fill="black"/>
</g>
<path d="M39.2324 76.9111C39.2324 76.9668 45.3209 76.9977 52.8294 76.9833C60.34 76.9689 66.4264 76.9111 66.4264 76.8555C66.4264 76.7998 60.34 76.7689 52.8294 76.7833C45.3209 76.7977 39.2324 76.8555 39.2324 76.9111Z" fill="#284366"/>
<defs>
<linearGradient id="paint0_linear_459_1508" x1="47.0133" y1="21.334" x2="47.0133" y2="57.6593" gradientUnits="userSpaceOnUse">
<stop stop-color="#1154AC"/>
<stop offset="1" stop-color="#014398"/>
</linearGradient>
<linearGradient id="paint1_linear_459_1508" x1="47.8653" y1="71.188" x2="50.274" y2="-1.64607" gradientUnits="userSpaceOnUse">
<stop stop-color="#0650B0"/>
<stop offset="1" stop-color="#91BAEF"/>
</linearGradient>
<linearGradient id="paint2_linear_459_1508" x1="53.7156" y1="10.7415" x2="53.7156" y2="71.0733" gradientUnits="userSpaceOnUse">
<stop stop-color="#D1E9FF"/>
<stop offset="1" stop-color="#A3C8F9"/>
</linearGradient>
<linearGradient id="paint3_linear_459_1508" x1="52.6841" y1="27.4875" x2="52.6841" y2="68.5499" gradientUnits="userSpaceOnUse">
<stop stop-color="#E3F1FE"/>
<stop offset="1" stop-color="#C5DFFF"/>
</linearGradient>
<linearGradient id="paint4_linear_459_1508" x1="50.5021" y1="92.1781" x2="51.305" y2="87.1313" gradientUnits="userSpaceOnUse">
<stop stop-color="#0A52AF"/>
<stop offset="1" stop-color="#3C6498"/>
</linearGradient>
<linearGradient id="paint5_linear_459_1508" x1="52.7052" y1="67.7798" x2="52.7052" y2="78.9811" gradientUnits="userSpaceOnUse">
<stop stop-color="#4C7DBE"/>
<stop offset="1" stop-color="#1D66C6"/>
</linearGradient>
<clipPath id="clip0_459_1508">
<rect width="107.359" height="103" fill="white" transform="translate(0.320312)"/>
</clipPath>
</defs>
</svg>
