<svg width="107" height="50" viewBox="0 0 107 50" fill="none" xmlns="http://www.w3.org/2000/svg">
<g clip-path="url(#clip0_337_1813)">
<path d="M0.251953 37.9006V0.171204H33.7458V37.9006H0.251953ZM8.38969 30.5553H25.5996V7.51652H8.38969V30.5553Z" fill="#BD0F72"/>
<path d="M77.8281 37.8994V0.172394H106.139V7.49299H85.9701V15.1187H106.139V22.3253H85.9701V30.5794H106.139V37.8994H77.8281Z" fill="#BD0F72"/>
<path d="M2.86821 49.4641C1.35287 49.4641 0.251953 48.4015 0.251953 46.9392C0.251953 45.4769 1.35287 44.4126 2.86821 44.4126C4.38356 44.4126 5.47603 45.4751 5.47603 46.9392C5.47603 48.4033 4.37994 49.4641 2.86821 49.4641ZM2.86821 45.4432C2.04841 45.4432 1.45421 46.0733 1.45421 46.9392C1.45421 47.8052 2.04841 48.4323 2.86821 48.4323C3.68802 48.4323 4.27497 47.8052 4.27497 46.9392C4.27437 46.0606 3.69646 45.4432 2.86821 45.4432Z" fill="#BD0F72"/>
<path d="M8.77803 44.4126C7.24579 44.4126 6.13281 45.4751 6.13281 46.9392C6.13281 48.4033 7.2464 49.4641 8.77803 49.4641C9.95616 49.4641 10.5715 48.7887 10.8821 48.2044L9.87412 47.7268C9.77446 47.9342 9.6193 48.1099 9.42583 48.2346C9.23236 48.3592 9.00814 48.4279 8.77803 48.4329C7.95581 48.4329 7.33507 47.7913 7.33507 46.9398C7.33507 46.0739 7.94193 45.4438 8.77803 45.4438C9.00822 45.4491 9.23244 45.518 9.42589 45.6429C9.61934 45.7677 9.77447 45.9436 9.87412 46.1511L10.8827 45.6687C10.5799 45.0838 9.97124 44.4126 8.77803 44.4126Z" fill="#BD0F72"/>
<path d="M11.8594 49.3732V44.4954H15.4101V45.5115H13.0387V46.3919H15.3576V47.408H13.0387V48.3577H15.4101V49.3732H11.8594Z" fill="#BD0F72"/>
<path d="M20.0814 49.3737L19.8352 48.6574H17.7939L17.5459 49.3737H16.2031L18.0406 44.493H19.5891L21.426 49.3737H20.0814ZM18.1082 47.6413H19.5191L18.8188 45.5488L18.1082 47.6413Z" fill="#BD0F72"/>
<path d="M25.5392 49.3731L23.3524 46.3815V49.3731H22.1719V44.4953H23.4152L25.5138 47.3464V44.4953H26.7004V49.3731H25.5392Z" fill="#BD0F72"/>
<path d="M34.5216 49.3731L32.3336 46.3815V49.3731H31.1543V44.4953H32.3976L34.4963 47.3464V44.4953H35.6846V49.3731H34.5216Z" fill="#BD0F72"/>
<path d="M36.9912 49.3732V44.4954H40.5401V45.5115H38.1712V46.3919H40.4888V47.408H38.1712V48.3577H40.5401V49.3732H36.9912Z" fill="#BD0F72"/>
<path d="M42.8215 49.3732V45.5115H41.4238V44.4954H45.3926V45.5115H44.0027V49.3732H42.8215Z" fill="#BD0F72"/>
<path d="M50.4018 49.3732L49.6031 46.2906L48.8074 49.3732H47.5286L46.1309 44.4954H47.4622L48.2525 47.78V47.7812L49.1519 44.4954H50.0562L50.952 47.7812V47.78L51.7392 44.4954H53.0772L51.6807 49.3732H50.4018Z" fill="#BD0F72"/>
<path d="M55.9955 49.4641C54.4802 49.4641 53.3799 48.4016 53.3799 46.9393C53.3799 45.477 54.4802 44.4126 55.9955 44.4126C57.5109 44.4126 58.6046 45.4751 58.6046 46.9393C58.6046 48.4034 57.5073 49.4641 55.9955 49.4641ZM55.9955 45.4432C55.1757 45.4432 54.5815 46.0733 54.5815 46.9393C54.5815 47.8052 55.1757 48.4323 55.9955 48.4323C56.8153 48.4323 57.4011 47.8052 57.4011 46.9393C57.4017 46.0607 56.8232 45.4432 55.9955 45.4432Z" fill="#BD0F72"/>
<path d="M62.185 49.3737L61.3477 47.7015H60.6057V49.3737H59.4258V44.4929H61.8689C62.8745 44.4929 63.5495 45.1375 63.5495 46.0981C63.5495 47.1286 62.8166 47.4645 62.591 47.5453L62.5307 47.5652L63.5345 49.3743L62.185 49.3737ZM60.6685 46.6842H61.738C62.1398 46.6842 62.4106 46.4466 62.4106 46.0945C62.4106 45.7423 62.1398 45.5114 61.738 45.5114H60.6685V46.6842Z" fill="#BD0F72"/>
<path d="M67.3749 49.3732L66.0424 47.4622L65.6503 47.9507V49.3732H64.4697V44.4954H65.6503V46.6494L67.2627 44.4954H68.7075L66.8169 46.7724L68.8167 49.3732H67.3749Z" fill="#BD0F72"/>
<path d="M72.6328 49.3731V44.4953H76.1817V45.5114H73.8134V46.3918H76.1298V47.4079H73.8134V48.3576H76.1817V49.3731H72.6328Z" fill="#BD0F72"/>
<path d="M80.5961 49.3731L79.4825 47.6557L78.3689 49.3731H76.9814L78.6784 46.87L77.0912 44.4953H78.4811L79.4825 46.1053L80.4754 44.4953H81.8719L80.286 46.8633L81.9841 49.3731H80.5961Z" fill="#BD0F72"/>
<path d="M82.7148 49.3737V44.4929H85.1592C86.3204 44.4929 86.8398 45.2991 86.8398 46.0981C86.8398 46.8971 86.3204 47.6967 85.1592 47.6967H83.896V49.37L82.7148 49.3737ZM83.8966 46.6842H84.9649C85.3613 46.6842 85.6394 46.443 85.6394 46.1011C85.6394 45.7471 85.3685 45.5114 84.9649 45.5114H83.8966V46.6842Z" fill="#BD0F72"/>
<path d="M90.4097 49.3737L89.5712 47.7016H88.8292V49.3737H87.6475V44.493H90.0936C91.0974 44.493 91.773 45.1376 91.773 46.0982C91.773 47.1287 91.0401 47.4646 90.8157 47.5454L90.7554 47.5653L91.758 49.3744L90.4097 49.3737ZM88.8292 46.6843H89.8976C90.2993 46.6843 90.572 46.4467 90.572 46.0946C90.572 45.7424 90.2999 45.5114 89.8976 45.5114H88.8292V46.6843Z" fill="#BD0F72"/>
<path d="M92.7793 49.3731V44.4953H96.3288V45.5114H93.958V46.3918H96.2757V47.4079H93.958V48.3576H96.3288V49.3731H92.7793Z" fill="#BD0F72"/>
<path d="M97.168 48.714C97.7139 49.2103 98.4348 49.4629 99.3119 49.4629C100.579 49.4629 101.337 48.8599 101.337 47.8481C101.337 46.7138 100.225 46.4762 99.4132 46.3025C98.9125 46.1958 98.5186 46.112 98.5186 45.8461C98.5186 45.6651 98.6212 45.4499 99.1098 45.4499C99.6346 45.4502 100.144 45.626 100.558 45.9492L101.198 45.07C100.683 44.6442 100.009 44.4199 99.2437 44.4199C97.9166 44.4199 97.3134 45.2141 97.3134 45.9522C97.3134 47.1202 98.4161 47.3457 99.2214 47.511C99.7299 47.6153 100.132 47.6979 100.132 47.9831C100.132 48.2593 99.8421 48.4318 99.3776 48.4318C98.786 48.4347 98.2158 48.2102 97.7851 47.8046L97.168 48.714Z" fill="#BD0F72"/>
<path d="M101.972 48.7141C102.515 49.2104 103.238 49.4631 104.114 49.4631C105.381 49.4631 106.139 48.8601 106.139 47.8482C106.139 46.714 105.027 46.4764 104.215 46.3027C103.716 46.196 103.321 46.1121 103.321 45.8462C103.321 45.6653 103.424 45.45 103.913 45.45C104.438 45.4504 104.947 45.6261 105.361 45.9493L106 45.0707C105.485 44.645 104.811 44.4207 104.047 44.4207C102.72 44.4207 102.116 45.2149 102.116 45.9529C102.116 47.121 103.219 47.3465 104.026 47.5117C104.533 47.6161 104.935 47.6987 104.935 47.9839C104.935 48.2601 104.646 48.4325 104.179 48.4325C103.588 48.4356 103.018 48.211 102.589 47.8054L101.972 48.7141Z" fill="#BD0F72"/>
<path d="M72.8764 0.17804H64.7326V24.1376C64.7326 24.1376 48.9542 3.75874 46.1129 0.17804H38.6973V37.9008H46.841V13.89C46.841 13.89 59.8276 30.7702 65.477 37.9008H72.8739L72.8764 0.17804Z" fill="#BD0F72"/>
</g>
<defs>
<clipPath id="clip0_337_1813">
<rect width="105.888" height="49.2928" fill="white" transform="translate(0.251953 0.171173)"/>
</clipPath>
</defs>
</svg>
