<svg width="17" height="22" viewBox="0 0 17 22" fill="none" xmlns="http://www.w3.org/2000/svg">
<path d="M6.31305 16.3901H10.367C10.499 15.1881 11.112 14.1961 12.107 13.1131C12.22 12.9911 12.939 12.2461 13.024 12.1401C13.7303 11.2577 14.173 10.1938 14.3012 9.07088C14.4293 7.94794 14.2377 6.81165 13.7483 5.79285C13.2589 4.77405 12.4918 3.91419 11.5352 3.31229C10.5785 2.71038 9.47136 2.39092 8.34113 2.39067C7.2109 2.39043 6.10359 2.70943 5.14671 3.31092C4.18983 3.91242 3.4223 4.77195 2.93251 5.79054C2.44272 6.80913 2.25059 7.94534 2.37824 9.06834C2.50589 10.1913 2.94814 11.2554 3.65405 12.1381C3.74005 12.2451 4.46105 12.9911 4.57205 13.1121C5.56805 14.1961 6.18105 15.1881 6.31305 16.3901ZM10.34 18.3901H6.34005V19.3901H10.34V18.3901ZM2.09405 13.3901C1.15224 12.2134 0.561996 10.7946 0.391312 9.29708C0.220629 7.79958 0.476448 6.28432 1.1293 4.92586C1.78215 3.56739 2.80548 2.42098 4.0814 1.61869C5.35733 0.816405 6.83393 0.390872 8.34113 0.391113C9.84833 0.391355 11.3248 0.817361 12.6005 1.62006C13.8761 2.42276 14.8991 3.56949 15.5515 4.92816C16.2039 6.28684 16.4593 7.80218 16.2881 9.29962C16.1169 10.7971 15.5262 12.2157 14.584 13.3921C13.964 14.1641 12.34 15.3901 12.34 16.8901V19.3901C12.34 19.9205 12.1293 20.4293 11.7543 20.8043C11.3792 21.1794 10.8705 21.3901 10.34 21.3901H6.34005C5.80961 21.3901 5.30091 21.1794 4.92583 20.8043C4.55076 20.4293 4.34005 19.9205 4.34005 19.3901V16.8901C4.34005 15.3901 2.71505 14.1641 2.09405 13.3901ZM9.34005 8.39411H11.84L7.34005 14.3941V10.3941H4.84005L9.34005 4.39011V8.39511V8.39411Z" fill="white"/>
</svg>
